<?xml version="1.0" encoding="utf-8"?>
<!-- Generator: Adobe Illustrator 27.5.0, SVG Export Plug-In . SVG Version: 6.00 Build 0)  -->
<svg version="1.1" id="Layer_1" xmlns="http://www.w3.org/2000/svg" xmlns:xlink="http://www.w3.org/1999/xlink" x="0px" y="0px"
	 viewBox="0 0 284.164 342.369" style="enable-background:new 0 0 284.164 342.369;" xml:space="preserve">
<g>
	<g>
		<path style="fill:#231F20;" d="M147.481,287.236c22.168-3.306,34.128-13.524,40.138-21.122
			c-7.009-2.684-10.688-7.318-11.291-18.583c-0.197-3.678-0.411-8.566-0.62-13.771c-25.375,16.681-56.37,3.717-67.182-1.783
			c-0.231,5.864-0.472,11.458-0.691,15.553c-0.56,10.459-3.771,15.201-9.836,17.975
			C102.883,273.085,118.046,291.625,147.481,287.236z"/>
		<path style="fill:#FCCAA3;" d="M175.708,233.76c-0.587-14.624-1.132-31.771-1.132-31.771c-0.307-0.307-64.99,0-64.99,0
			s-0.501,15.79-1.06,29.988C119.338,237.478,150.333,250.441,175.708,233.76z"/>
		<path style="opacity:0.64;fill:#EB936D;" d="M119.683,219.02c2.624,1.169,5.297,2.229,7.99,3.227
			c3.627,1.345,7.273,2.533,11.1,3.167c6.495,1.076,13.127,0.665,19.485-1.004c5.901-1.549,11.501-4.061,16.84-6.991
			c-0.305-8.66-0.52-15.43-0.52-15.43c-0.307-0.307-64.99,0-64.99,0s-0.152,4.797-0.382,11.477
			C112.494,215.673,116.124,217.435,119.683,219.02z"/>
		<path style="fill:#D3242F;" d="M241.839,281.43c-16.057-5.188-29.639-8.951-39.958-11.555
			c-7.766,10.086-23.595,24.051-53.471,28.507c-38.868,5.796-58.895-18.709-65.334-28.706c-10.412,2.61-24.278,6.432-40.751,11.755
			c-20.967,6.774-32.902,9.677-38.063,55.804c0,0,275.485-0.968,275.639,0C274.741,291.107,262.806,288.203,241.839,281.43z"/>
		<path style="fill:#E8DAD4;" d="M148.41,298.381c29.876-4.455,45.705-18.421,53.471-28.507c-3.156-0.796-6.018-1.488-8.537-2.074
			c-2.11-0.491-4.015-1.031-5.724-1.686c-6.011,7.598-17.97,17.816-40.138,21.122c-29.435,4.389-44.598-14.151-49.481-21.729
			c-2.061,0.943-4.451,1.659-7.18,2.294c-2.306,0.536-4.904,1.163-7.744,1.875C89.515,279.672,109.542,304.177,148.41,298.381z"/>
	</g>
	<path style="fill:#322317;" d="M57.486,57.278c0,0-50.32,87.706-23.225,137.059c-3.548-9.677-1.29-19.031-1.29-19.031
		s1.613,17.419,12.58,27.096c6.774-0.323,8.57-0.914,8.57-0.914s4.091,4.24,9.595,6.546c5.876-0.818,13.984-4.091,13.984-4.091
		s-8.48-3.273-9.67-6.769c8.108,5.43,17.108,6.918,16.885,6.918c-0.223,0,2.408,3.794,8.214,5.246
		c6.774-0.323,7.903-0.968,7.903-0.968s-7.742-4.032-11.129-11.451c7.58,8.387,15.644,10.806,15.644,10.806l8.064-1.613
		C113.612,206.111,83.076,70.718,57.486,57.278z"/>
	<path style="fill:#5E2B11;" d="M68.558,69.604c-2.285,9.434-3.509,19.16-4.377,28.772c-1.291,14.29-2.124,28.68-1.65,43.03
		c0.445,13.48,2.037,26.953,5.327,40.047c1.629,6.484,3.687,12.863,6.192,19.057c5.972,2.735,11.034,3.58,10.865,3.58
		c-0.223,0,2.408,3.794,8.214,5.246c6.774-0.323,7.903-0.968,7.903-0.968s-7.742-4.032-11.129-11.451
		c7.58,8.387,15.644,10.806,15.644,10.806l8.064-1.613C113.612,206.111,91.115,106.365,68.558,69.604z"/>
	<path style="fill:#322317;" d="M232.212,57.278c0,0,50.32,87.706,23.225,137.059c3.548-9.677,1.29-19.031,1.29-19.031
		s-1.613,17.419-12.58,27.096c-6.774-0.323-8.57-0.914-8.57-0.914s-4.091,4.24-9.595,6.546c-5.876-0.818-13.984-4.091-13.984-4.091
		s8.479-3.273,9.67-6.769c-8.108,5.43-17.108,6.918-16.885,6.918s-2.408,3.794-8.214,5.246c-6.774-0.323-7.903-0.968-7.903-0.968
		s7.742-4.032,11.129-11.451c-7.58,8.387-15.644,10.806-15.644,10.806l-8.064-1.613C176.086,206.111,215.053,85.622,232.212,57.278z
		"/>
	<path style="fill:#5E2B11;" d="M188.666,208.369c0,0,1.129,0.645,7.903,0.968c5.806-1.452,8.437-5.246,8.214-5.246
		c-0.175,0,5.348-0.928,11.654-3.956c2.204-5.187,4.085-10.505,5.486-16.015c2.981-11.727,2.825-24.06,1.467-36.007
		c-1.33-11.7-3.864-23.172-7.624-34.33c-2.082-6.177-4.484-12.234-7.038-18.228c-17.721,44.414-32.641,110.557-32.641,110.557
		l8.064,1.613c0,0,8.064-2.419,15.645-10.806C196.408,204.337,188.666,208.369,188.666,208.369z"/>
	<path style="fill:#322317;" d="M211.998,203.942c0,0,0.915,0.368,2.335,0.884c0.381-0.816,0.751-1.637,1.118-2.459
		C213.569,203.334,211.998,203.942,211.998,203.942z"/>
	<g>
		<path style="fill:#FCCAA3;" d="M55.599,143.206c2.43,3.225,5.323,6.055,8.696,7.936c2.657,1.482,7.592,3.908,10.397,1.836
			c2.877-2.124,2.721-8.293,2.609-11.658c-0.158-4.752-1.228-9.654-2.976-14.043c-0.49-2.498-1.223-4.988-2.316-7.236
			c-1.877-3.857-4.938-7.66-8.788-8.904c-6.73-2.174-13.301,2.3-14.56,10.007C47.331,129.291,51.024,137.135,55.599,143.206z"/>
		<path style="opacity:0.64;fill:#EB936D;" d="M71.608,153.769c-0.557-1.644-1.095-3.297-1.61-4.959
			c-2.053-6.63-3.783-13.428-4.86-20.364c-0.866-5.578-1.327-11.3-0.986-16.945c3.412,1.512,6.135,5,7.857,8.54
			c1.094,2.248,1.826,4.738,2.316,7.236c1.747,4.389,2.818,9.292,2.976,14.043c0.112,3.365,0.268,9.533-2.609,11.658
			C73.825,153.619,72.753,153.828,71.608,153.769z"/>
		<path style="fill:#EB936D;" d="M51.767,121.068c0.589-1.495,1.816-2.465,3.149-2.809c3.07-0.792,6.493,1.491,8.689,3.924
			c4.889,5.415,6.437,13.814,7.338,21.299c0.053,0.438-0.515,0.187-0.581-0.115c-0.26-1.195-0.524-2.409-0.802-3.628
			c-0.046,0.897-0.152,1.784-0.265,2.581c-0.221,1.564-0.903,3.002-2.316,3.236c-3.411,0.565-6.209-4.063-8.108-6.681
			c-0.178-0.246,0.162-0.356,0.308-0.191c1.731,1.961,3.572,4.575,5.965,5.355c1.926,0.628,2.611-1.055,2.957-2.926
			c0.286-1.542,0.794-3.347,0.374-4.914c-0.058-0.217,0.004-0.339,0.112-0.39c-0.974-3.596-2.21-7.097-4.056-10.125
			c-1.603-2.629-3.889-4.942-6.608-5.665c-1.852-0.492-3.776,0.063-4.712,2.132c-0.874,1.932-0.347,4.311-0.415,6.427
			c-0.008,0.251-0.363,0.046-0.386-0.126C52.088,126.005,50.804,123.513,51.767,121.068z"/>
	</g>
	<g>
		<path style="fill:#FCCAA3;" d="M242.931,121.144c-1.259-7.707-7.829-12.181-14.56-10.007c-3.85,1.244-6.912,5.046-8.788,8.904
			c-1.094,2.248-1.826,4.738-2.316,7.236c-1.747,4.389-2.818,9.292-2.976,14.043c-0.112,3.365-0.268,9.533,2.609,11.658
			c2.805,2.072,7.74-0.355,10.397-1.836c3.373-1.881,6.265-4.711,8.696-7.936C240.569,137.135,244.261,129.291,242.931,121.144z"/>
		<path style="opacity:0.64;fill:#EB936D;" d="M219.984,153.769c0.557-1.644,1.095-3.297,1.61-4.959
			c2.053-6.63,3.783-13.428,4.86-20.364c0.866-5.578,1.327-11.3,0.986-16.945c-3.412,1.512-6.135,5-7.857,8.54
			c-1.094,2.248-1.826,4.738-2.316,7.236c-1.747,4.389-2.818,9.292-2.976,14.043c-0.112,3.365-0.268,9.533,2.609,11.658
			C217.768,153.619,218.839,153.828,219.984,153.769z"/>
		<path style="fill:#EB936D;" d="M239.825,121.068c-0.589-1.495-1.816-2.465-3.149-2.809c-3.07-0.792-6.493,1.491-8.689,3.924
			c-4.889,5.415-6.437,13.814-7.338,21.299c-0.053,0.438,0.515,0.187,0.581-0.115c0.26-1.195,0.524-2.409,0.802-3.628
			c0.046,0.897,0.152,1.784,0.265,2.581c0.221,1.564,0.902,3.002,2.315,3.236c3.411,0.565,6.209-4.063,8.108-6.681
			c0.178-0.246-0.162-0.356-0.308-0.191c-1.731,1.961-3.572,4.575-5.965,5.355c-1.926,0.628-2.611-1.055-2.957-2.926
			c-0.286-1.542-0.793-3.347-0.374-4.914c0.058-0.217-0.004-0.339-0.112-0.39c0.974-3.596,2.21-7.097,4.056-10.125
			c1.603-2.629,3.889-4.942,6.608-5.665c1.852-0.492,3.776,0.063,4.712,2.132c0.874,1.932,0.347,4.311,0.415,6.427
			c0.008,0.251,0.363,0.046,0.386-0.126C239.504,126.005,240.789,123.513,239.825,121.068z"/>
	</g>
	<path style="fill:#FCCAA3;" d="M65.781,86.047c0,0,2.809,77.05,30.098,107.95s66.441,40.338,104.665-3.53
		c13.064-17.257,16.528-34.192,20.14-54.257c3.612-20.065,20.868-95.51-44.544-113.568C110.727,4.583,62.169,38.693,65.781,86.047z"
		/>
	<g>
		<path style="opacity:0.64;fill:#EB936D;" d="M143.098,149.52c-2.089-0.348-4.187-1.156-5.678-2.671
			c-0.027,0.141-0.047,0.284-0.052,0.431c-0.024,0.778,0.291,1.507,0.757,2.117c0.95,1.243,2.417,2.089,3.839,2.682
			c1.458,0.609,2.994,0.974,4.578,0.941c3.391-0.072,6.952-1.717,8.051-5.038c-0.984,0.484-2.031,0.846-3.09,1.117
			C148.782,149.793,145.875,149.982,143.098,149.52z"/>
		<path style="opacity:0.65;fill:#92422B;" d="M137.751,150c0.701,0.689,1.503,1.262,2.368,1.729
			c1.09,0.588,2.254,1.016,3.452,1.313c0.273,0.031,0.548,0.057,0.825,0.067c1.121,0.039,2.268-0.051,3.382-0.167
			c1.201-0.124,2.515-0.325,3.697-0.782c-3.344,0.736-7.032,0.394-10.111-1.088c-0.827-0.398-1.614-0.892-2.314-1.487
			c-0.593-0.504-1.257-1.14-1.521-1.893c-0.448-1.281,0.752-2.296,1.589-3.075c1.066-0.993,2.442-2.159,2.521-3.725
			c0.012-0.249-0.334-0.101-0.388,0.039c-0.583,1.491-2.006,2.454-3.137,3.503c-0.958,0.889-2.026,2.056-1.73,3.475
			C136.559,148.74,137.163,149.422,137.751,150z"/>
	</g>
	<path style="fill:#322317;" d="M162.521,90.873c0,0-0.197,6.698,1.182,7.683c1.379,0.985,24.034-6.107,42.945,0.985
		C198.571,87.721,177.886,87.721,162.521,90.873z"/>
	<path style="fill:#322317;" d="M70.725,130.195c0,0-20.038-10.742-20.244-42.348C50.274,56.24,74.633,19.814,117.483,8.54
		c40.872-10.754,50.965,7.408,50.965,7.408s10.471-10.373,38.063,4.85c18.709,10.322,49.675,61.932,15.483,108.382
		c0.27-43.035-3.051-52.582-15.008-71.768c-9.797,14.368-50.29,43.105-125.724,32.982C70.811,101.822,68.68,109.911,70.725,130.195z
		"/>
	<path style="fill:#322317;" d="M133.093,90.873c0,0,0.197,6.698-1.182,7.683c-1.379,0.985-24.034-6.107-42.945,0.985
		C97.043,87.721,117.728,87.721,133.093,90.873z"/>
	<g>
		<path d="M91.454,109.729c0,0-4.344,0.566-5.792-0.504c0.567,1.637,5.099,1.826,5.099,1.826"/>
		<path d="M89.251,112.688c0,0-4.344,0.567-5.792-0.504c0.566,1.637,5.099,1.826,5.099,1.826"/>
		<path d="M88.18,116.34c0,0-4.344,0.567-5.792-0.504c0.566,1.637,5.099,1.826,5.099,1.826"/>
		<path d="M89.452,121.282c0,0-3.374-0.367-4.424,0.768c0.339-1.66,3.813-2.056,3.813-2.056"/>
		<path d="M92.28,123.602c0,0-3.254,0.964-3.784,2.416c-0.329-1.662,2.723-3.368,2.723-3.368"/>
		<path d="M97.739,125.756c0,0-3.127,1.319-3.493,2.821c-0.511-1.615,2.333-3.649,2.333-3.649"/>
		<path d="M103.406,125.54c0,0-1.979,2.756-1.508,4.229c-1.278-1.111,0.086-4.331,0.086-4.331"/>
		<path style="fill:#FFFFFF;" d="M123.253,121.821c0,0-10.491,7.714-28.851,2.777c-10.8-3.549-9.257-11.571,0.463-16.045
			C104.585,104.079,121.556,107.01,123.253,121.821z"/>
		<path d="M107.978,126.341c0,0-15.326,0.958-18.839-7.025c-1.597-4.683,7.982-10.43,17.987-10.005
			c10.005,0.426,15.22,8.834,15.22,8.834s-2.671-13.668-19.311-12.486c-17.149,1.219-19.324,12.273-13.79,16.53
			C94.781,126.447,99.357,127.724,107.978,126.341z"/>
	</g>
	<g>
		<path d="M202.875,109.729c0,0,4.344,0.566,5.792-0.504c-0.567,1.637-5.099,1.826-5.099,1.826"/>
		<path d="M205.078,112.688c0,0,4.344,0.567,5.792-0.504c-0.567,1.637-5.099,1.826-5.099,1.826"/>
		<path d="M206.148,116.34c0,0,4.344,0.567,5.792-0.504c-0.567,1.637-5.099,1.826-5.099,1.826"/>
		<path d="M204.876,121.282c0,0,3.374-0.367,4.423,0.768c-0.338-1.66-3.813-2.056-3.813-2.056"/>
		<path d="M202.048,123.602c0,0,3.254,0.964,3.784,2.416c0.329-1.662-2.723-3.368-2.723-3.368"/>
		<path d="M196.59,125.756c0,0,3.127,1.319,3.493,2.821c0.511-1.615-2.333-3.649-2.333-3.649"/>
		<path d="M190.922,125.54c0,0,1.98,2.756,1.508,4.229c1.278-1.111-0.087-4.331-0.087-4.331"/>
		<path style="fill:#FFFFFF;" d="M171.076,121.821c0,0,10.491,7.714,28.851,2.777c10.8-3.549,9.257-11.571-0.463-16.045
			C189.744,104.079,172.773,107.01,171.076,121.821z"/>
		<path d="M186.35,126.341c0,0,15.326,0.958,18.839-7.025c1.596-4.683-7.982-10.43-17.987-10.005
			c-10.005,0.426-15.22,8.834-15.22,8.834s2.671-13.668,19.311-12.486c17.149,1.219,19.324,12.273,13.79,16.53
			C199.548,126.447,194.971,127.724,186.35,126.341z"/>
	</g>
	<g>
		<path style="fill:#E3383A;" d="M168.997,177.402c0,0-14.786-6.535-16.628-6.501c-1.842,0.034-3.371,3.544-5.549,3.544
			c-1.081,0-1.525-0.802-3.965-2.503c-2.44-1.701-17.221,5.353-17.221,5.353s11.688,11.182,21.881,11.182
			C157.708,188.478,168.997,177.402,168.997,177.402z"/>
		<path style="fill:#E3383A;" d="M127.23,177.171c0,0,12.216,10.156,40.991,0.107C168.221,177.278,145.659,185.694,127.23,177.171z"
			/>
	</g>
	<g>
		<g>
			<circle style="fill:#92422B;" cx="108.022" cy="117.657" r="8.144"/>
			<path style="fill:#1A1716;" d="M114.086,117.657c0,3.349-2.715,6.064-6.064,6.064s-6.064-2.715-6.064-6.064
				s2.715-6.064,6.064-6.064S114.086,114.308,114.086,117.657z"/>
			<path style="fill:#FFFFFF;" d="M107.241,114.31c0,1.326-1.075,2.401-2.402,2.401c-1.326,0-2.402-1.075-2.402-2.401
				s1.075-2.402,2.402-2.402C106.166,111.908,107.241,112.983,107.241,114.31z"/>
			<circle style="fill:#FFFFFF;" cx="102.234" cy="117.863" r="0.709"/>
		</g>
	</g>
	<ellipse style="opacity:0.21;fill:#EB936D;" cx="93.995" cy="146.418" rx="20.842" ry="14.329"/>
	<ellipse style="opacity:0.21;fill:#EB936D;" cx="194.157" cy="146.418" rx="20.842" ry="14.329"/>
	<g style="opacity:0.47;">
		<path style="fill:#E14A31;" d="M94.241,138.876c-0.015-0.045-0.043-0.08-0.084-0.105c-0.041-0.029-0.085-0.044-0.134-0.046
			c-0.052-0.012-0.104-0.011-0.156,0.003c-0.037,0.012-0.074,0.024-0.11,0.036c-0.077,0.034-0.144,0.081-0.202,0.141
			c-0.024,0.031-0.047,0.061-0.071,0.091c-0.038,0.06-0.06,0.124-0.067,0.195v0.129c-0.006,0.049,0.003,0.094,0.027,0.134
			c0.014,0.045,0.042,0.08,0.084,0.105c0.041,0.029,0.085,0.044,0.134,0.046c0.052,0.012,0.104,0.01,0.156-0.003
			c0.037-0.012,0.073-0.024,0.11-0.036c0.076-0.034,0.144-0.081,0.202-0.141c0.024-0.031,0.047-0.061,0.071-0.091
			c0.038-0.059,0.06-0.124,0.067-0.195v-0.129C94.275,138.962,94.266,138.917,94.241,138.876z"/>
		<path style="fill:#E14A31;" d="M98.471,137.835c-0.41,0-0.794,0.729-0.25,0.729C98.631,138.565,99.015,137.835,98.471,137.835z"/>
		<path style="fill:#E14A31;" d="M103.403,137.533c-0.007-0.06-0.019-0.119-0.036-0.177c-0.007-0.022-0.017-0.043-0.028-0.063
			c-0.01-0.061-0.031-0.119-0.087-0.153c-0.08-0.049-0.162-0.048-0.253-0.037c-0.102-0.005-0.206,0.004-0.292,0.051
			c-0.042,0.023-0.08,0.047-0.119,0.071c-0.169,0.078-0.325,0.185-0.448,0.319c-0.228,0.247-0.356,0.564-0.382,0.898
			c-0.006,0.086,0.025,0.167,0.086,0.227c0.066,0.065,0.142,0.085,0.235,0.093c0.134,0.012,0.267,0.005,0.401-0.015
			c0.166-0.025,0.314-0.094,0.456-0.179c0.069-0.041,0.132-0.098,0.189-0.153c0.057-0.054,0.107-0.12,0.147-0.186
			c0.081-0.132,0.128-0.28,0.143-0.434C103.423,137.708,103.412,137.618,103.403,137.533z"/>
		<path style="fill:#E14A31;" d="M110.258,139.284c-0.011-0.053-0.037-0.096-0.078-0.127c-0.033-0.041-0.076-0.067-0.13-0.079
			c-0.013-0.005-0.027-0.01-0.04-0.016c-0.031-0.005-0.061-0.009-0.092-0.013c-0.053-0.002-0.103,0.007-0.151,0.027
			c-0.037,0.008-0.071,0.023-0.102,0.045c-0.052,0.025-0.098,0.06-0.138,0.104l-0.051,0.046c-0.026,0.034-0.052,0.068-0.079,0.101
			c-0.034,0.049-0.055,0.103-0.063,0.162c-0.013,0.035-0.015,0.07-0.007,0.105c-0.003,0.036,0.006,0.068,0.025,0.097
			c0.016,0.049,0.047,0.088,0.093,0.117l0.094,0.043l0.109,0.016c0.063,0.002,0.122-0.008,0.18-0.031
			c0.044-0.01,0.084-0.028,0.121-0.054c0.042-0.019,0.08-0.045,0.112-0.078c0.053-0.04,0.097-0.088,0.131-0.146
			c0.017-0.036,0.034-0.072,0.051-0.107c0.007-0.036,0.015-0.072,0.022-0.108C110.264,139.352,110.261,139.318,110.258,139.284z"/>
		<path style="fill:#E14A31;" d="M112.392,141.744c-0.499,0-0.966,0.887-0.304,0.887
			C112.587,142.632,113.054,141.744,112.392,141.744z"/>
		<path style="fill:#E14A31;" d="M104.044,143.964c-0.007-0.061-0.021-0.121-0.043-0.179c-0.067-0.176-0.165-0.333-0.33-0.435
			c-0.199-0.124-0.434-0.161-0.664-0.12c-0.066,0.012-0.132,0.034-0.196,0.06c-0.216,0.064-0.397,0.207-0.535,0.394
			c-0.134,0.183-0.207,0.411-0.236,0.634c-0.028,0.223,0.015,0.443,0.129,0.637c0.132,0.226,0.372,0.332,0.622,0.359
			c0.133,0.015,0.277-0.003,0.405-0.039c0.28-0.08,0.506-0.245,0.67-0.484c0.108-0.157,0.167-0.352,0.187-0.54
			C104.065,144.156,104.055,144.06,104.044,143.964z"/>
		<path style="fill:#E14A31;" d="M80.529,137.93c-0.002-0.004-0.005-0.007-0.007-0.012c-0.028-0.068-0.036-0.142-0.053-0.213
			c0.025-0.063,0.035-0.13,0.017-0.199c-0.024-0.09-0.086-0.141-0.162-0.169c-0.006-0.015-0.013-0.03-0.019-0.046
			c-0.032-0.077-0.066-0.153-0.101-0.229c-0.038-0.052-0.089-0.087-0.151-0.104c-0.069-0.018-0.138-0.019-0.208-0.004
			c-0.156,0.032-0.305,0.136-0.388,0.272c-0.117,0.192-0.223,0.39-0.304,0.6c-0.047,0.122-0.019,0.274,0.094,0.349
			c0.032,0.021,0.064,0.041,0.099,0.057c0.051,0.024,0.102,0.052,0.157,0.064c0.132,0.028,0.257,0.012,0.382-0.034
			c0.001,0.001,0.001,0.002,0.002,0.003c0.056,0.058,0.091,0.092,0.176,0.104c0.163,0.024,0.336-0.074,0.421-0.212
			C80.522,138.096,80.555,138.002,80.529,137.93z"/>
		<path style="fill:#E14A31;" d="M81.505,133.669c-0.465,0-0.901,0.827-0.283,0.827C81.687,134.497,82.123,133.669,81.505,133.669z"
			/>
		<path style="fill:#E14A31;" d="M85.324,143.776c-0.006-0.04-0.011-0.081-0.016-0.121c-0.011-0.054-0.038-0.097-0.079-0.13
			c-0.034-0.041-0.078-0.068-0.132-0.08c-0.037-0.005-0.074-0.011-0.111-0.016c-0.064-0.002-0.125,0.008-0.183,0.032
			c-0.045,0.01-0.086,0.028-0.123,0.054c-0.063,0.031-0.119,0.072-0.167,0.125c-0.027,0.034-0.054,0.069-0.08,0.103
			c-0.043,0.067-0.068,0.14-0.075,0.219l-0.017,0.132c-0.006,0.075,0.012,0.143,0.054,0.205c0.025,0.025,0.051,0.05,0.076,0.075
			c0.065,0.042,0.136,0.062,0.214,0.063c0.066,0.002,0.129-0.009,0.189-0.033c0.069-0.018,0.132-0.048,0.19-0.092
			c0.061-0.039,0.111-0.089,0.151-0.147c0.044-0.048,0.076-0.104,0.096-0.167C85.337,143.925,85.341,143.851,85.324,143.776z"/>
		<path style="fill:#E14A31;" d="M116.658,140.526c0-0.008-0.007-0.093-0.009-0.101c0-0.001,0-0.002-0.001-0.003
			c0-0.001-0.001-0.002-0.001-0.003c0-0.001-0.001-0.001-0.001-0.002c0-0.001-0.039-0.085-0.039-0.086c0,0,0-0.001-0.001-0.001
			c-0.001-0.003-0.003-0.005-0.005-0.008c-0.021-0.026-0.047-0.049-0.072-0.071c-0.039-0.027-0.082-0.042-0.129-0.044
			c-0.019-0.004-0.038,0.002-0.057,0.001c-0.007-0.001-0.013-0.002-0.02-0.003c-0.014,0.001-0.029,0.003-0.043,0.004
			c-0.01,0.002-0.02-0.002-0.029,0.001c-0.003,0.001-0.007,0.002-0.01,0.003c-0.013,0.001-0.025,0.003-0.038,0.004
			c-0.005,0.001-0.009,0.003-0.014,0.005c-0.008,0.002-0.017,0.004-0.025,0.005c0.004,0,0.009-0.001,0.014-0.001
			c-0.005,0.002-0.01,0.003-0.014,0.005c-0.033,0.005-0.067,0.005-0.098,0.017c-0.066,0.017-0.127,0.046-0.182,0.088
			c-0.035,0.03-0.07,0.06-0.105,0.09c-0.047,0.045-0.082,0.097-0.105,0.156c-0.021,0.033-0.034,0.07-0.037,0.109
			c-0.016,0.052-0.017,0.105-0.002,0.158c0.014,0.031,0.028,0.062,0.042,0.093c0.042,0.058,0.098,0.096,0.167,0.115
			c0.04,0.006,0.08,0.012,0.12,0.017c0.004,0.001,0.008,0.001,0.012,0.001c0.007,0.001,0.013,0.001,0.02,0
			c0.003,0,0.006,0,0.009-0.001c0.041-0.004,0.083-0.007,0.124-0.012c0.002,0,0.003,0,0.005-0.001
			c0.003-0.001,0.006-0.001,0.008-0.002c0.001,0,0.002-0.001,0.004-0.001c0.001,0,0.001,0,0.002-0.001
			c0.021-0.007,0.042-0.014,0.063-0.02c0.021-0.007,0.042-0.013,0.063-0.02c0.002-0.001,0.12-0.067,0.122-0.069
			c0.001-0.001,0.106-0.09,0.106-0.091c0.001-0.001,0.08-0.102,0.081-0.103c0.001-0.001,0.052-0.109,0.053-0.11
			c0.001-0.001,0.001-0.002,0.001-0.003c0-0.001,0-0.001,0.001-0.002c0.001-0.005,0.022-0.103,0.022-0.108c0-0.001,0-0.002,0-0.003
			C116.658,140.527,116.658,140.527,116.658,140.526z"/>
		<g>
			<path style="fill:#E14A31;" d="M119.762,134.273c-0.017-0.066-0.054-0.118-0.11-0.157c-0.038-0.036-0.075-0.073-0.116-0.107
				c-0.009-0.007-0.018-0.015-0.028-0.021c-0.004-0.003-0.007-0.005-0.011-0.007c-0.022-0.012-0.098-0.041-0.112-0.048
				c-0.067-0.018-0.094-0.014-0.16-0.008c-0.093,0.009-0.067,0.003-0.187,0.047c-0.001,0.001-0.003,0.001-0.004,0.002
				c-0.087,0.039-0.165,0.092-0.231,0.161c-0.03,0.032-0.057,0.066-0.08,0.103c-0.035,0.058-0.074,0.147-0.074,0.217
				c0,0.002,0.009,0.102,0.009,0.103c0.007,0.033,0.023,0.065,0.042,0.092c0.001,0.001,0.002,0.002,0.003,0.003
				c0,0,0,0.001,0.001,0.001l0-0.001c0.002,0.002,0.005,0.004,0.006,0.006c0.018,0.027,0.039,0.052,0.069,0.071
				c0.031,0.017,0.063,0.032,0.097,0.045c0.003,0.001,0.005,0.001,0.008,0.002c0.006,0.002,0.013,0.004,0.019,0.006
				c0.001,0,0.002,0.001,0.002,0.001c0.017,0.009,0.035,0.017,0.053,0.026c0.007,0.004,0.014,0.007,0.022,0.011
				c0.044,0.031,0.091,0.047,0.143,0.05c0.055,0.012,0.111,0.011,0.167-0.004c0.064-0.012,0.122-0.035,0.175-0.071
				c0.06-0.029,0.113-0.069,0.158-0.119c0.025-0.033,0.051-0.065,0.076-0.098c0.041-0.064,0.064-0.133,0.071-0.208
				C119.768,134.34,119.765,134.307,119.762,134.273z"/>
			<path style="fill:#E14A31;" d="M119.386,133.933c0.006,0.001,0.008,0.001,0.014,0.003
				C119.383,133.931,119.381,133.931,119.386,133.933z"/>
		</g>
		<path style="fill:#E14A31;" d="M114.967,133.756c-0.043-0.053-0.114-0.094-0.185-0.088c-0.049,0.005-0.098,0.01-0.147,0.015
			c-0.027,0.003-0.055,0.005-0.083,0.007c-0.009-0.067-0.036-0.134-0.093-0.169c-0.079-0.049-0.177-0.062-0.267-0.04
			c-0.106,0.026-0.215,0.079-0.287,0.163c-0.067,0.078-0.124,0.154-0.159,0.251c-0.011,0.03-0.017,0.07-0.02,0.101
			c-0.001,0.014,0.002,0.066,0.009,0.095c0.003,0.012,0.021,0.047,0.018,0.041c-0.007-0.015,0.012,0.031,0.019,0.04
			c0.017,0.023,0.048,0.053,0.064,0.064c0.003,0.003,0.007,0.005,0.01,0.007c0.018,0.011,0.056,0.028,0.076,0.035
			c0.002,0.001,0.005,0.002,0.007,0.003c0.036,0.011,0.075,0.015,0.113,0.017c0.035,0.002,0.07-0.006,0.104-0.011
			c0.173,0.001,0.348-0.032,0.519-0.057c0.044-0.008,0.085-0.025,0.122-0.049c0.042-0.02,0.079-0.048,0.11-0.083
			c0.046-0.052,0.081-0.108,0.095-0.177C115.005,133.869,115.004,133.803,114.967,133.756z"/>
		<path style="fill:#E14A31;" d="M112.887,148.233c-0.436,0-0.843,0.775-0.265,0.775
			C113.058,149.008,113.466,148.233,112.887,148.233z"/>
		<path style="fill:#E14A31;" d="M107.731,150.065c-0.402,0-0.778,0.714-0.245,0.714
			C107.888,150.779,108.264,150.065,107.731,150.065z"/>
		<path style="fill:#E14A31;" d="M98.859,147.863c-0.419,0-0.811,0.744-0.255,0.744C99.023,148.607,99.415,147.863,98.859,147.863z"
			/>
		<path style="fill:#E14A31;" d="M101.571,143.97c-0.023-0.022-0.045-0.044-0.068-0.066c-0.058-0.037-0.121-0.056-0.19-0.056
			c-0.037,0.004-0.074,0.007-0.111,0.011c-0.082,0.018-0.158,0.052-0.227,0.1c-0.051,0.042-0.109,0.085-0.151,0.139
			c-0.028,0.035-0.056,0.069-0.082,0.106c-0.004,0.005-0.007,0.011-0.011,0.017c-0.025,0.041-0.044,0.086-0.063,0.129
			c-0.023,0.05-0.031,0.113-0.041,0.165c-0.005,0.026-0.006,0.053-0.004,0.08c-0.006,0.049,0.003,0.094,0.027,0.134
			c0.014,0.045,0.042,0.08,0.084,0.105c0.041,0.029,0.085,0.044,0.134,0.046c0.052,0.012,0.104,0.01,0.156-0.003
			c0.037-0.012,0.074-0.024,0.11-0.036c0.076-0.034,0.144-0.081,0.202-0.141c0.024-0.031,0.047-0.061,0.071-0.091
			c0.032-0.05,0.05-0.104,0.06-0.161c0.015-0.016,0.034-0.027,0.046-0.045c0.039-0.043,0.067-0.092,0.085-0.148
			c0.02-0.049,0.026-0.099,0.017-0.15C101.615,144.056,101.601,144.011,101.571,143.97z"/>
		<path style="fill:#E14A31;" d="M92.576,144.969c-0.016-0.06-0.049-0.107-0.1-0.143c-0.027-0.013-0.055-0.025-0.082-0.038
			c-0.03-0.008-0.06-0.012-0.09-0.013c-0.001-0.033-0.002-0.066-0.019-0.095c-0.014-0.042-0.04-0.074-0.078-0.098
			c-0.026-0.012-0.052-0.024-0.079-0.037c-0.047-0.014-0.094-0.017-0.142-0.008c-0.035,0-0.069,0.007-0.101,0.022
			c-0.055,0.014-0.106,0.038-0.152,0.073l-0.088,0.075c-0.049,0.051-0.086,0.109-0.11,0.176c-0.015,0.067-0.034,0.138-0.034,0.208
			c0,0.045,0.004,0.091,0.011,0.136c0.002,0.014,0.006,0.028,0.011,0.041c0.013,0.032,0.027,0.065,0.044,0.096
			c0.003,0.006,0.007,0.011,0.01,0.016c0.016,0.021,0.06,0.067,0.093,0.085c0.003,0.001,0.005,0.003,0.008,0.004
			c0.029,0.014,0.059,0.029,0.089,0.041c0.006,0.003,0.013,0.005,0.019,0.006c0.022,0.006,0.046,0.008,0.067,0.011
			c0.023,0.003,0.047,0.008,0.07,0.009c0.008,0,0.017,0,0.026,0c0.044-0.002,0.088-0.007,0.131-0.013
			c0.022-0.003,0.043-0.008,0.064-0.014c0.058-0.011,0.111-0.032,0.159-0.064c0.055-0.026,0.102-0.062,0.144-0.108
			c0.04-0.039,0.071-0.084,0.092-0.136c0.026-0.043,0.04-0.091,0.042-0.142C92.581,145.029,92.578,144.999,92.576,144.969z"/>
		<path style="fill:#E14A31;" d="M89.551,146.285c-0.016-0.079-0.033-0.157-0.049-0.236c-0.007-0.033-0.023-0.06-0.049-0.08
			c-0.021-0.025-0.048-0.042-0.081-0.05c-0.023-0.003-0.046-0.007-0.069-0.01c-0.039-0.001-0.077,0.005-0.113,0.02
			c-0.028,0.006-0.053,0.017-0.076,0.034c-0.039,0.019-0.073,0.045-0.103,0.077c-0.017,0.021-0.033,0.042-0.049,0.064
			c-0.027,0.041-0.042,0.087-0.046,0.135c-0.017,0.089-0.033,0.179-0.05,0.268c-0.004,0.052,0.008,0.1,0.037,0.143
			c0.018,0.017,0.035,0.035,0.053,0.052c0.045,0.029,0.095,0.044,0.149,0.044c0.046,0.002,0.09-0.006,0.132-0.023
			c0.048-0.012,0.092-0.034,0.133-0.064c0.042-0.027,0.077-0.062,0.105-0.103c0.03-0.034,0.053-0.072,0.067-0.116
			C89.56,146.389,89.563,146.337,89.551,146.285z"/>
		<path style="fill:#E14A31;" d="M87.107,144.226c-0.008-0.039-0.027-0.07-0.057-0.094c-0.024-0.03-0.056-0.049-0.095-0.058
			l-0.111-0.029c-0.061-0.016-0.122-0.017-0.183-0.003c-0.071,0.016-0.135,0.044-0.195,0.086c-0.028,0.024-0.056,0.048-0.084,0.072
			c-0.047,0.049-0.082,0.105-0.105,0.168c-0.017,0.042-0.022,0.085-0.014,0.128c-0.001,0.042,0.011,0.081,0.037,0.115
			c0.07,0.1,0.206,0.12,0.317,0.095l0.131-0.029c0.03-0.01,0.06-0.019,0.09-0.029c0.048-0.019,0.09-0.047,0.126-0.082
			c0.027-0.019,0.049-0.042,0.067-0.07c0.031-0.034,0.053-0.072,0.067-0.116c0.005-0.026,0.011-0.053,0.016-0.079
			C87.111,144.277,87.109,144.251,87.107,144.226z"/>
		<path style="fill:#E14A31;" d="M109.008,152.15c-0.035-0.054-0.082-0.09-0.141-0.11c-0.057-0.033-0.118-0.048-0.186-0.045
			c-0.1,0-0.195,0.02-0.286,0.061c-0.095,0.042-0.188,0.104-0.261,0.18c-0.009,0.006-0.019,0.007-0.027,0.013
			c-0.036,0.031-0.071,0.061-0.107,0.092c-0.027,0.035-0.054,0.069-0.081,0.104c-0.035,0.051-0.057,0.106-0.064,0.166
			c-0.016,0.053-0.017,0.107-0.002,0.161c0.007,0.028,0.014,0.056,0.018,0.085c0.002,0.016,0.004,0.033,0.006,0.049
			c0.001,0.005,0.002,0.011,0.004,0.016c0,0.001,0.001,0.003,0.002,0.004c0.008,0.02,0.035,0.081,0.046,0.1
			c0.001,0.002,0.003,0.005,0.004,0.007c0.002,0.002,0.003,0.004,0.005,0.006c0.001,0.001,0.002,0.003,0.004,0.004
			c0.023,0.024,0.055,0.056,0.079,0.078c0.006,0.005,0.012,0.011,0.019,0.016c0.027,0.02,0.055,0.038,0.082,0.057
			c0.143,0.096,0.333,0.074,0.483,0.009c0.092-0.041,0.173-0.098,0.243-0.171c0.064-0.066,0.111-0.142,0.142-0.227
			c0.011-0.034,0.021-0.069,0.033-0.103c0.021-0.058,0.032-0.121,0.042-0.181c0.008-0.045,0.005-0.093,0.006-0.139
			C109.075,152.298,109.055,152.221,109.008,152.15z"/>
		<path style="fill:#E14A31;" d="M119.98,138.691c-0.016-0.04-0.034-0.083-0.055-0.12c-0.003-0.006-0.007-0.011-0.011-0.016
			c-0.028-0.034-0.063-0.065-0.096-0.095c-0.005-0.005-0.01-0.009-0.015-0.013c-0.011-0.009-0.023-0.015-0.035-0.022
			c-0.047-0.024-0.097-0.052-0.149-0.065c-0.056-0.014-0.114-0.021-0.172-0.025c-0.019-0.001-0.038-0.001-0.057,0.001
			c-0.066,0.006-0.134,0.009-0.199,0.024c-0.011,0.003-0.022,0.005-0.033,0.009c-0.006,0.002-0.011,0.003-0.017,0.005
			c-0.034,0.011-0.114,0.033-0.146,0.047c-0.002,0.001-0.004,0.002-0.006,0.003c-0.047,0.026-0.094,0.053-0.14,0.079
			c-0.011,0.008-0.022,0.016-0.032,0.024c-0.005,0.004-0.01,0.008-0.015,0.013c-0.006,0.005-0.018,0.015-0.027,0.022
			c-0.011,0.007-0.022,0.011-0.033,0.018c-0.078,0.049-0.143,0.13-0.194,0.204c-0.031,0.044-0.055,0.095-0.071,0.146
			c-0.013,0.039-0.02,0.08-0.026,0.12c-0.002,0.011-0.003,0.023-0.003,0.034c0.001,0.118,0.027,0.207,0.088,0.309
			c0.016,0.028,0.036,0.054,0.058,0.078c0.041,0.046,0.085,0.092,0.134,0.13c0.057,0.045,0.128,0.077,0.195,0.102
			c0.015,0.005,0.03,0.009,0.046,0.012c0.049,0.009,0.104,0.021,0.156,0.019c0.048-0.001,0.097-0.007,0.144-0.014
			c0.007-0.001,0.014-0.002,0.021-0.004c0.049-0.012,0.098-0.029,0.146-0.046c0.007-0.003,0.014-0.005,0.02-0.008
			c0.006-0.003,0.011-0.006,0.016-0.008c0.048-0.026,0.098-0.051,0.143-0.082c0.006-0.004,0.011-0.008,0.016-0.012
			c0.043-0.034,0.087-0.071,0.126-0.109c0.043-0.041,0.077-0.093,0.112-0.14c0.008-0.011,0.016-0.022,0.022-0.034
			c0.027-0.05,0.053-0.102,0.074-0.155c0.005-0.013,0.009-0.026,0.012-0.04c0.015-0.062,0.035-0.133,0.032-0.199
			C120.004,138.821,120.004,138.75,119.98,138.691z"/>
		<path style="fill:#E14A31;" d="M107.52,135.33l-0.072-0.071c-0.062-0.04-0.13-0.06-0.204-0.06
			c-0.063-0.002-0.123,0.008-0.181,0.032c-0.066,0.017-0.126,0.046-0.181,0.088c-0.058,0.038-0.106,0.084-0.144,0.141
			c-0.042,0.046-0.072,0.099-0.091,0.159c-0.007,0.036-0.015,0.072-0.022,0.109c-0.005,0.071,0.012,0.137,0.051,0.196l0.072,0.071
			c0.062,0.04,0.13,0.06,0.204,0.06c0.063,0.002,0.123-0.008,0.181-0.032c0.066-0.017,0.126-0.046,0.182-0.088
			c0.058-0.038,0.106-0.085,0.144-0.141c0.042-0.046,0.072-0.099,0.091-0.159c0.007-0.036,0.015-0.072,0.022-0.109
			C107.577,135.455,107.56,135.39,107.52,135.33z"/>
		<path style="fill:#E14A31;" d="M87.16,138.18c-0.002-0.016-0.005-0.032-0.01-0.048c-0.014-0.048-0.038-0.094-0.06-0.138
			c-0.007-0.013-0.014-0.026-0.023-0.038c-0.03-0.038-0.067-0.074-0.106-0.105c-0.039-0.031-0.092-0.05-0.136-0.069
			c-0.015-0.007-0.03-0.012-0.046-0.015c-0.054-0.012-0.112-0.022-0.169-0.022c-0.063-0.001-0.126,0.008-0.188,0.017
			c-0.081,0.013-0.155,0.048-0.226,0.087c-0.031,0.018-0.064,0.035-0.094,0.054c-0.023,0.015-0.046,0.032-0.067,0.05
			c-0.035,0.03-0.07,0.06-0.105,0.09c-0.047,0.045-0.082,0.097-0.105,0.156c-0.026,0.053-0.047,0.118-0.049,0.182
			c-0.024,0.042-0.048,0.084-0.067,0.13c-0.021,0.052-0.031,0.11-0.04,0.165c-0.009,0.054-0.001,0.111,0.006,0.164
			c0.004,0.027,0.011,0.052,0.022,0.076c0.022,0.052,0.044,0.106,0.08,0.151c0.048,0.059,0.109,0.122,0.179,0.158
			c0.096,0.05,0.172,0.076,0.283,0.08c0.052,0.002,0.106-0.005,0.157-0.015c0.055-0.01,0.109-0.03,0.16-0.05
			c0.055-0.022,0.107-0.055,0.157-0.086c0.051-0.032,0.096-0.076,0.14-0.116c0.058-0.051,0.104-0.115,0.147-0.178
			c0.043-0.063,0.074-0.135,0.103-0.204c0.015-0.035,0.025-0.071,0.034-0.107c0.016-0.07,0.034-0.143,0.034-0.216
			C87.172,138.284,87.166,138.232,87.16,138.18z"/>
		<path style="fill:#E14A31;" d="M79.374,130.731c-0.008-0.03-0.023-0.056-0.037-0.083c0,0,0-0.001,0-0.001
			c0.006,0.014,0.012,0.027,0.019,0.041c-0.01-0.021-0.013-0.045-0.018-0.067c0-0.007,0-0.015,0-0.022
			c0.005-0.041-0.002-0.078-0.022-0.112c-0.012-0.037-0.035-0.067-0.07-0.088c-0.023-0.011-0.047-0.022-0.07-0.033
			c-0.042-0.013-0.084-0.015-0.127-0.008c-0.032,0-0.062,0.006-0.09,0.019c-0.049,0.013-0.095,0.034-0.136,0.066
			c-0.026,0.022-0.052,0.045-0.078,0.067c-0.044,0.045-0.077,0.098-0.098,0.157c-0.009,0.037-0.017,0.076-0.023,0.114
			c-0.002,0.013-0.003,0.025-0.004,0.038c0,0.012,0,0.023,0.001,0.035c0.002,0.037,0.004,0.075,0.011,0.111
			c0.002,0.011,0.005,0.023,0.008,0.034c0.002,0.006,0.004,0.012,0.006,0.017c0.001,0.003,0.002,0.005,0.003,0.008
			c0,0.001,0.001,0.003,0.002,0.004c0.011,0.024,0.022,0.048,0.033,0.072c0.004,0.005,0.007,0.01,0.012,0.014
			c0.022,0.022,0.043,0.044,0.066,0.064c0.009,0.008,0.019,0.016,0.03,0.024c0.023,0.011,0.046,0.021,0.07,0.032
			c0.042,0.013,0.083,0.015,0.125,0.007c0.031,0,0.061-0.006,0.089-0.019c0.049-0.012,0.094-0.034,0.134-0.065l0.077-0.066
			l0.059-0.075c0.025-0.037,0.041-0.077,0.047-0.12c0.012-0.038,0.012-0.077,0.002-0.117
			C79.385,130.764,79.379,130.748,79.374,130.731z"/>
	</g>
	<g style="opacity:0.47;">
		<path style="fill:#E14A31;" d="M186.45,138.876c-0.014-0.045-0.042-0.08-0.084-0.105c-0.041-0.029-0.085-0.044-0.134-0.046
			c-0.052-0.012-0.104-0.011-0.156,0.003c-0.037,0.012-0.074,0.024-0.11,0.036c-0.077,0.034-0.144,0.081-0.202,0.141
			c-0.024,0.031-0.047,0.061-0.071,0.091c-0.038,0.06-0.06,0.124-0.067,0.195v0.129c-0.006,0.049,0.003,0.094,0.027,0.134
			c0.014,0.045,0.042,0.08,0.084,0.105c0.041,0.029,0.085,0.044,0.134,0.046c0.052,0.012,0.104,0.01,0.156-0.003
			c0.037-0.012,0.074-0.024,0.11-0.036c0.076-0.034,0.144-0.081,0.202-0.141c0.024-0.031,0.047-0.061,0.071-0.091
			c0.038-0.059,0.06-0.124,0.067-0.195v-0.129C186.483,138.962,186.474,138.917,186.45,138.876z"/>
		<path style="fill:#E14A31;" d="M190.679,137.835c-0.41,0-0.794,0.729-0.25,0.729C190.839,138.565,191.223,137.835,190.679,137.835
			z"/>
		<path style="fill:#E14A31;" d="M195.611,137.533c-0.007-0.06-0.019-0.119-0.037-0.177c-0.007-0.022-0.017-0.043-0.028-0.063
			c-0.01-0.061-0.031-0.119-0.087-0.153c-0.08-0.049-0.162-0.048-0.253-0.037c-0.102-0.005-0.206,0.004-0.292,0.051
			c-0.042,0.023-0.08,0.047-0.119,0.071c-0.169,0.078-0.325,0.185-0.448,0.319c-0.228,0.247-0.356,0.564-0.381,0.898
			c-0.007,0.086,0.025,0.167,0.086,0.227c0.066,0.065,0.142,0.085,0.235,0.093c0.134,0.012,0.267,0.005,0.401-0.015
			c0.166-0.025,0.314-0.094,0.456-0.179c0.069-0.041,0.132-0.098,0.189-0.153c0.057-0.054,0.107-0.12,0.148-0.186
			c0.081-0.132,0.128-0.28,0.143-0.434C195.631,137.708,195.621,137.618,195.611,137.533z"/>
		<path style="fill:#E14A31;" d="M202.467,139.284c-0.011-0.053-0.037-0.096-0.078-0.127c-0.033-0.041-0.077-0.067-0.13-0.079
			c-0.014-0.005-0.027-0.01-0.04-0.016c-0.031-0.005-0.061-0.009-0.092-0.013c-0.053-0.002-0.103,0.007-0.151,0.027
			c-0.037,0.008-0.071,0.023-0.102,0.045c-0.052,0.025-0.098,0.06-0.138,0.104l-0.051,0.046c-0.026,0.034-0.053,0.068-0.079,0.101
			c-0.034,0.049-0.055,0.103-0.063,0.162c-0.012,0.035-0.015,0.07-0.007,0.105c-0.003,0.036,0.006,0.068,0.026,0.097
			c0.016,0.049,0.047,0.088,0.093,0.117l0.094,0.043l0.109,0.016c0.063,0.002,0.122-0.008,0.18-0.031
			c0.044-0.01,0.084-0.028,0.121-0.054c0.042-0.019,0.08-0.045,0.112-0.078c0.053-0.04,0.097-0.088,0.131-0.146
			c0.017-0.036,0.034-0.072,0.051-0.107c0.008-0.036,0.015-0.072,0.022-0.108C202.473,139.352,202.469,139.318,202.467,139.284z"/>
		<path style="fill:#E14A31;" d="M204.6,141.744c-0.499,0-0.966,0.887-0.304,0.887C204.796,142.632,205.263,141.744,204.6,141.744z"
			/>
		<path style="fill:#E14A31;" d="M196.252,143.964c-0.007-0.061-0.021-0.121-0.043-0.179c-0.067-0.176-0.165-0.333-0.33-0.435
			c-0.199-0.124-0.434-0.161-0.664-0.12c-0.066,0.012-0.132,0.034-0.196,0.06c-0.217,0.064-0.398,0.207-0.535,0.394
			c-0.134,0.183-0.207,0.411-0.236,0.634c-0.028,0.223,0.015,0.443,0.129,0.637c0.133,0.226,0.372,0.332,0.622,0.359
			c0.133,0.015,0.277-0.003,0.405-0.039c0.28-0.08,0.505-0.245,0.67-0.484c0.108-0.157,0.167-0.352,0.187-0.54
			C196.273,144.156,196.263,144.06,196.252,143.964z"/>
		<path style="fill:#E14A31;" d="M172.737,137.93c-0.002-0.004-0.005-0.007-0.007-0.012c-0.027-0.068-0.036-0.142-0.053-0.213
			c0.025-0.063,0.035-0.13,0.017-0.199c-0.024-0.09-0.086-0.141-0.162-0.169c-0.006-0.015-0.013-0.03-0.019-0.046
			c-0.032-0.077-0.066-0.153-0.101-0.229c-0.038-0.052-0.089-0.087-0.151-0.104c-0.069-0.018-0.138-0.019-0.208-0.004
			c-0.156,0.032-0.305,0.136-0.388,0.272c-0.117,0.192-0.223,0.39-0.304,0.6c-0.047,0.122-0.019,0.274,0.094,0.349
			c0.032,0.021,0.064,0.041,0.099,0.057c0.051,0.024,0.102,0.052,0.158,0.064c0.132,0.028,0.257,0.012,0.382-0.034
			c0.001,0.001,0.002,0.002,0.002,0.003c0.056,0.058,0.092,0.092,0.176,0.104c0.163,0.024,0.336-0.074,0.421-0.212
			C172.73,138.096,172.764,138.002,172.737,137.93z"/>
		<path style="fill:#E14A31;" d="M173.714,133.669c-0.465,0-0.901,0.827-0.283,0.827
			C173.895,134.497,174.331,133.669,173.714,133.669z"/>
		<path style="fill:#E14A31;" d="M177.533,143.776c-0.005-0.04-0.011-0.081-0.016-0.121c-0.011-0.054-0.038-0.097-0.079-0.13
			c-0.034-0.041-0.078-0.068-0.132-0.08c-0.037-0.005-0.074-0.011-0.111-0.016c-0.064-0.002-0.125,0.008-0.183,0.032
			c-0.045,0.01-0.086,0.028-0.123,0.054c-0.063,0.031-0.119,0.072-0.167,0.125c-0.027,0.034-0.054,0.069-0.08,0.103
			c-0.043,0.067-0.068,0.14-0.075,0.219l-0.017,0.132c-0.006,0.075,0.012,0.143,0.054,0.205c0.025,0.025,0.051,0.05,0.076,0.075
			c0.065,0.042,0.136,0.062,0.214,0.063c0.066,0.002,0.129-0.009,0.189-0.033c0.069-0.018,0.132-0.048,0.19-0.092
			c0.061-0.039,0.111-0.089,0.151-0.147c0.044-0.048,0.076-0.104,0.096-0.167C177.545,143.925,177.549,143.851,177.533,143.776z"/>
		<path style="fill:#E14A31;" d="M208.866,140.526c0-0.008-0.007-0.093-0.009-0.101c0-0.001,0-0.002-0.001-0.003
			c0-0.001-0.001-0.002-0.001-0.003c0-0.001-0.001-0.001-0.001-0.002c0-0.001-0.039-0.085-0.039-0.086c0,0,0-0.001-0.001-0.001
			c-0.001-0.003-0.003-0.005-0.005-0.008c-0.021-0.026-0.047-0.049-0.072-0.071c-0.039-0.027-0.082-0.042-0.129-0.044
			c-0.019-0.004-0.038,0.002-0.057,0.001c-0.007-0.001-0.013-0.002-0.02-0.003c-0.014,0.001-0.029,0.003-0.043,0.004
			c-0.01,0.002-0.02-0.002-0.029,0.001c-0.003,0.001-0.007,0.002-0.01,0.003c-0.013,0.001-0.025,0.003-0.038,0.004
			c-0.005,0.001-0.009,0.003-0.014,0.005c-0.008,0.002-0.017,0.004-0.025,0.005c0.005,0,0.009-0.001,0.014-0.001
			c-0.005,0.002-0.01,0.003-0.014,0.005c-0.033,0.005-0.066,0.005-0.098,0.017c-0.066,0.017-0.127,0.046-0.182,0.088
			c-0.035,0.03-0.07,0.06-0.105,0.09c-0.047,0.045-0.082,0.097-0.105,0.156c-0.021,0.033-0.034,0.07-0.037,0.109
			c-0.016,0.052-0.017,0.105-0.002,0.158c0.014,0.031,0.028,0.062,0.042,0.093c0.042,0.058,0.098,0.096,0.167,0.115
			c0.04,0.006,0.08,0.012,0.12,0.017c0.004,0.001,0.008,0.001,0.012,0.001c0.007,0.001,0.013,0.001,0.02,0
			c0.003,0,0.006,0,0.009-0.001c0.041-0.004,0.083-0.007,0.124-0.012c0.002,0,0.003,0,0.005-0.001
			c0.003-0.001,0.006-0.001,0.008-0.002c0.001,0,0.002-0.001,0.004-0.001c0.001,0,0.001,0,0.002-0.001
			c0.021-0.007,0.042-0.014,0.063-0.02c0.021-0.007,0.042-0.013,0.063-0.02c0.002-0.001,0.12-0.067,0.122-0.069
			c0.001-0.001,0.106-0.09,0.106-0.091c0.001-0.001,0.08-0.102,0.081-0.103c0.001-0.001,0.052-0.109,0.053-0.11
			c0.001-0.001,0.001-0.002,0.001-0.003c0-0.001,0-0.001,0.001-0.002c0.001-0.005,0.022-0.103,0.022-0.108c0-0.001,0-0.002,0-0.003
			C208.866,140.527,208.866,140.527,208.866,140.526z"/>
		<g>
			<path style="fill:#E14A31;" d="M211.971,134.273c-0.017-0.066-0.054-0.118-0.11-0.157c-0.038-0.036-0.075-0.073-0.116-0.107
				c-0.009-0.007-0.018-0.015-0.028-0.021c-0.004-0.003-0.007-0.005-0.011-0.007c-0.022-0.012-0.098-0.041-0.112-0.048
				c-0.067-0.018-0.094-0.014-0.16-0.008c-0.093,0.009-0.067,0.003-0.187,0.047c-0.001,0.001-0.003,0.001-0.004,0.002
				c-0.087,0.039-0.165,0.092-0.231,0.161c-0.03,0.032-0.057,0.066-0.08,0.103c-0.035,0.058-0.074,0.147-0.074,0.217
				c0,0.002,0.009,0.102,0.009,0.103c0.007,0.033,0.023,0.065,0.042,0.092c0.001,0.001,0.002,0.002,0.003,0.003
				c0,0,0.001,0.001,0.001,0.001l0-0.001c0.002,0.002,0.005,0.004,0.006,0.006c0.018,0.027,0.039,0.052,0.069,0.071
				c0.031,0.017,0.064,0.032,0.097,0.045c0.002,0.001,0.005,0.001,0.008,0.002c0.006,0.002,0.013,0.004,0.019,0.006
				c0.001,0,0.001,0.001,0.002,0.001c0.018,0.009,0.035,0.017,0.053,0.026c0.007,0.004,0.014,0.007,0.022,0.011
				c0.043,0.031,0.091,0.047,0.143,0.05c0.055,0.012,0.111,0.011,0.167-0.004c0.064-0.012,0.122-0.035,0.175-0.071
				c0.06-0.029,0.113-0.069,0.158-0.119c0.025-0.033,0.051-0.065,0.076-0.098c0.041-0.064,0.064-0.133,0.071-0.208
				C211.976,134.34,211.973,134.307,211.971,134.273z"/>
			<path style="fill:#E14A31;" d="M211.594,133.933c0.006,0.001,0.008,0.001,0.014,0.003
				C211.591,133.931,211.589,133.931,211.594,133.933z"/>
		</g>
		<path style="fill:#E14A31;" d="M207.176,133.756c-0.043-0.053-0.114-0.094-0.185-0.088c-0.049,0.005-0.098,0.01-0.147,0.015
			c-0.027,0.003-0.055,0.005-0.083,0.007c-0.01-0.067-0.036-0.134-0.093-0.169c-0.079-0.049-0.177-0.062-0.267-0.04
			c-0.106,0.026-0.215,0.079-0.288,0.163c-0.067,0.078-0.124,0.154-0.159,0.251c-0.01,0.03-0.017,0.07-0.02,0.101
			c-0.001,0.014,0.002,0.066,0.009,0.095c0.003,0.012,0.021,0.047,0.018,0.041c-0.007-0.015,0.012,0.031,0.019,0.04
			c0.017,0.023,0.048,0.053,0.064,0.064c0.003,0.003,0.007,0.005,0.01,0.007c0.018,0.011,0.056,0.028,0.076,0.035
			c0.003,0.001,0.005,0.002,0.007,0.003c0.036,0.011,0.075,0.015,0.113,0.017c0.035,0.002,0.07-0.006,0.104-0.011
			c0.174,0.001,0.348-0.032,0.519-0.057c0.044-0.008,0.085-0.025,0.122-0.049c0.042-0.02,0.079-0.048,0.11-0.083
			c0.046-0.052,0.081-0.108,0.095-0.177C207.214,133.869,207.213,133.803,207.176,133.756z"/>
		<path style="fill:#E14A31;" d="M205.096,148.233c-0.436,0-0.844,0.775-0.265,0.775
			C205.266,149.008,205.674,148.233,205.096,148.233z"/>
		<path style="fill:#E14A31;" d="M199.939,150.065c-0.402,0-0.778,0.714-0.245,0.714
			C200.096,150.779,200.473,150.065,199.939,150.065z"/>
		<path style="fill:#E14A31;" d="M191.068,147.863c-0.419,0-0.811,0.744-0.255,0.744
			C191.231,148.607,191.623,147.863,191.068,147.863z"/>
		<path style="fill:#E14A31;" d="M193.779,143.97c-0.022-0.022-0.045-0.044-0.068-0.066c-0.058-0.037-0.121-0.056-0.19-0.056
			c-0.037,0.004-0.074,0.007-0.111,0.011c-0.082,0.018-0.158,0.052-0.227,0.1c-0.051,0.042-0.109,0.085-0.152,0.139
			c-0.028,0.035-0.056,0.069-0.082,0.106c-0.004,0.005-0.007,0.011-0.011,0.017c-0.025,0.041-0.044,0.086-0.063,0.129
			c-0.023,0.05-0.032,0.113-0.041,0.165c-0.005,0.026-0.006,0.053-0.004,0.08c-0.006,0.049,0.003,0.094,0.027,0.134
			c0.015,0.045,0.043,0.08,0.084,0.105c0.041,0.029,0.085,0.044,0.134,0.046c0.052,0.012,0.104,0.01,0.156-0.003
			c0.037-0.012,0.074-0.024,0.11-0.036c0.077-0.034,0.144-0.081,0.202-0.141c0.024-0.031,0.047-0.061,0.071-0.091
			c0.032-0.05,0.05-0.104,0.06-0.161c0.014-0.016,0.034-0.027,0.046-0.045c0.039-0.043,0.067-0.092,0.085-0.148
			c0.02-0.049,0.026-0.099,0.017-0.15C193.824,144.056,193.809,144.011,193.779,143.97z"/>
		<path style="fill:#E14A31;" d="M184.784,144.969c-0.016-0.06-0.049-0.107-0.1-0.143c-0.027-0.013-0.055-0.025-0.082-0.038
			c-0.03-0.008-0.06-0.012-0.09-0.013c-0.001-0.033-0.002-0.066-0.019-0.095c-0.014-0.042-0.04-0.074-0.078-0.098
			c-0.026-0.012-0.053-0.024-0.079-0.037c-0.047-0.014-0.094-0.017-0.142-0.008c-0.035,0-0.069,0.007-0.101,0.022
			c-0.055,0.014-0.106,0.038-0.152,0.073l-0.087,0.075c-0.049,0.051-0.086,0.109-0.11,0.176c-0.015,0.067-0.034,0.138-0.033,0.208
			c0,0.045,0.004,0.091,0.011,0.136c0.002,0.014,0.006,0.028,0.011,0.041c0.013,0.032,0.027,0.065,0.044,0.096
			c0.003,0.006,0.007,0.011,0.01,0.016c0.016,0.021,0.06,0.067,0.093,0.085c0.003,0.001,0.005,0.003,0.008,0.004
			c0.029,0.014,0.059,0.029,0.089,0.041c0.006,0.003,0.013,0.005,0.019,0.006c0.022,0.006,0.046,0.008,0.067,0.011
			c0.023,0.003,0.046,0.008,0.07,0.009c0.009,0,0.017,0,0.026,0c0.044-0.002,0.088-0.007,0.131-0.013
			c0.022-0.003,0.043-0.008,0.064-0.014c0.058-0.011,0.111-0.032,0.159-0.064c0.055-0.026,0.102-0.062,0.143-0.108
			c0.041-0.039,0.071-0.084,0.092-0.136c0.025-0.043,0.039-0.091,0.042-0.142C184.789,145.029,184.786,144.999,184.784,144.969z"/>
		<path style="fill:#E14A31;" d="M181.759,146.285c-0.016-0.079-0.033-0.157-0.049-0.236c-0.007-0.033-0.023-0.06-0.049-0.08
			c-0.021-0.025-0.048-0.042-0.081-0.05c-0.023-0.003-0.046-0.007-0.069-0.01c-0.039-0.001-0.077,0.005-0.113,0.02
			c-0.027,0.006-0.053,0.017-0.076,0.034c-0.039,0.019-0.073,0.045-0.103,0.077c-0.016,0.021-0.033,0.042-0.05,0.064
			c-0.027,0.041-0.042,0.087-0.046,0.135c-0.017,0.089-0.033,0.179-0.05,0.268c-0.004,0.052,0.008,0.1,0.037,0.143
			c0.018,0.017,0.035,0.035,0.053,0.052c0.045,0.029,0.095,0.044,0.149,0.044c0.046,0.002,0.09-0.006,0.132-0.023
			c0.048-0.012,0.092-0.034,0.133-0.064c0.042-0.027,0.077-0.062,0.105-0.103c0.03-0.034,0.053-0.072,0.067-0.116
			C181.768,146.389,181.771,146.337,181.759,146.285z"/>
		<path style="fill:#E14A31;" d="M179.315,144.226c-0.008-0.039-0.027-0.07-0.057-0.094c-0.024-0.03-0.056-0.049-0.095-0.058
			l-0.111-0.029c-0.061-0.016-0.122-0.017-0.183-0.003c-0.071,0.016-0.135,0.044-0.194,0.086c-0.028,0.024-0.056,0.048-0.084,0.072
			c-0.047,0.049-0.082,0.105-0.105,0.168c-0.017,0.042-0.022,0.085-0.014,0.128c-0.001,0.042,0.012,0.081,0.038,0.115
			c0.07,0.1,0.206,0.12,0.317,0.095l0.131-0.029c0.03-0.01,0.06-0.019,0.09-0.029c0.048-0.019,0.09-0.047,0.126-0.082
			c0.027-0.019,0.049-0.042,0.067-0.07c0.03-0.034,0.053-0.072,0.067-0.116c0.005-0.026,0.011-0.053,0.016-0.079
			C179.319,144.277,179.317,144.251,179.315,144.226z"/>
		<path style="fill:#E14A31;" d="M201.216,152.15c-0.035-0.054-0.083-0.09-0.141-0.11c-0.057-0.033-0.118-0.048-0.186-0.045
			c-0.1,0-0.195,0.02-0.286,0.061c-0.095,0.042-0.188,0.104-0.261,0.18c-0.009,0.006-0.019,0.007-0.028,0.013
			c-0.036,0.031-0.071,0.061-0.107,0.092c-0.027,0.035-0.054,0.069-0.081,0.104c-0.035,0.051-0.057,0.106-0.064,0.166
			c-0.016,0.053-0.017,0.107-0.002,0.161c0.007,0.028,0.014,0.056,0.018,0.085c0.002,0.016,0.003,0.033,0.006,0.049
			c0.001,0.005,0.002,0.011,0.004,0.016c0,0.001,0.001,0.003,0.001,0.004c0.008,0.02,0.035,0.081,0.046,0.1
			c0.001,0.002,0.003,0.005,0.004,0.007c0.001,0.002,0.003,0.004,0.005,0.006c0.001,0.001,0.002,0.003,0.003,0.004
			c0.023,0.024,0.055,0.056,0.08,0.078c0.006,0.005,0.012,0.011,0.019,0.016c0.027,0.02,0.055,0.038,0.082,0.057
			c0.143,0.096,0.333,0.074,0.483,0.009c0.092-0.041,0.174-0.098,0.243-0.171c0.064-0.066,0.111-0.142,0.142-0.227
			c0.011-0.034,0.021-0.069,0.033-0.103c0.021-0.058,0.032-0.121,0.042-0.181c0.008-0.045,0.005-0.093,0.006-0.139
			C201.283,152.298,201.263,152.221,201.216,152.15z"/>
		<path style="fill:#E14A31;" d="M212.188,138.691c-0.016-0.04-0.034-0.083-0.055-0.12c-0.003-0.006-0.007-0.011-0.011-0.016
			c-0.028-0.034-0.063-0.065-0.096-0.095c-0.005-0.005-0.01-0.009-0.015-0.013c-0.011-0.009-0.023-0.015-0.035-0.022
			c-0.046-0.024-0.097-0.052-0.149-0.065c-0.056-0.014-0.114-0.021-0.172-0.025c-0.019-0.001-0.038-0.001-0.057,0.001
			c-0.066,0.006-0.134,0.009-0.199,0.024c-0.011,0.003-0.022,0.005-0.033,0.009c-0.006,0.002-0.011,0.003-0.017,0.005
			c-0.034,0.011-0.114,0.033-0.146,0.047c-0.002,0.001-0.004,0.002-0.006,0.003c-0.047,0.026-0.094,0.053-0.141,0.079
			c-0.011,0.008-0.022,0.016-0.032,0.024c-0.005,0.004-0.01,0.008-0.015,0.013c-0.006,0.005-0.018,0.015-0.027,0.022
			c-0.011,0.007-0.023,0.011-0.033,0.018c-0.078,0.049-0.142,0.13-0.194,0.204c-0.031,0.044-0.055,0.095-0.071,0.146
			c-0.013,0.039-0.02,0.08-0.026,0.12c-0.002,0.011-0.003,0.023-0.003,0.034c0.001,0.118,0.027,0.207,0.087,0.309
			c0.017,0.028,0.037,0.054,0.058,0.078c0.042,0.046,0.085,0.092,0.134,0.13c0.057,0.045,0.128,0.077,0.195,0.102
			c0.015,0.005,0.03,0.009,0.046,0.012c0.049,0.009,0.104,0.021,0.156,0.019c0.048-0.001,0.097-0.007,0.144-0.014
			c0.007-0.001,0.014-0.002,0.021-0.004c0.049-0.012,0.098-0.029,0.145-0.046c0.007-0.003,0.014-0.005,0.021-0.008
			c0.006-0.003,0.011-0.006,0.016-0.008c0.048-0.026,0.098-0.051,0.143-0.082c0.006-0.004,0.011-0.008,0.016-0.012
			c0.043-0.034,0.087-0.071,0.126-0.109c0.043-0.041,0.078-0.093,0.112-0.14c0.008-0.011,0.015-0.022,0.022-0.034
			c0.027-0.05,0.053-0.102,0.074-0.155c0.005-0.013,0.009-0.026,0.012-0.04c0.015-0.062,0.035-0.133,0.032-0.199
			C212.213,138.821,212.212,138.75,212.188,138.691z"/>
		<path style="fill:#E14A31;" d="M199.728,135.33l-0.072-0.071c-0.062-0.04-0.13-0.06-0.204-0.06
			c-0.063-0.002-0.123,0.008-0.181,0.032c-0.066,0.017-0.126,0.046-0.182,0.088c-0.058,0.038-0.106,0.084-0.144,0.141
			c-0.042,0.046-0.072,0.099-0.091,0.159c-0.008,0.036-0.015,0.072-0.023,0.109c-0.005,0.071,0.012,0.137,0.051,0.196l0.072,0.071
			c0.062,0.04,0.13,0.06,0.204,0.06c0.063,0.002,0.123-0.008,0.181-0.032c0.066-0.017,0.126-0.046,0.182-0.088
			c0.058-0.038,0.106-0.085,0.144-0.141c0.042-0.046,0.072-0.099,0.091-0.159c0.008-0.036,0.015-0.072,0.022-0.109
			C199.785,135.455,199.768,135.39,199.728,135.33z"/>
		<path style="fill:#E14A31;" d="M179.368,138.18c-0.002-0.016-0.005-0.032-0.01-0.048c-0.014-0.048-0.038-0.094-0.06-0.138
			c-0.007-0.013-0.014-0.026-0.023-0.038c-0.03-0.038-0.067-0.074-0.106-0.105c-0.039-0.031-0.092-0.05-0.136-0.069
			c-0.015-0.007-0.03-0.012-0.046-0.015c-0.054-0.012-0.112-0.022-0.169-0.022c-0.063-0.001-0.126,0.008-0.188,0.017
			c-0.081,0.013-0.155,0.048-0.226,0.087c-0.031,0.018-0.064,0.035-0.094,0.054c-0.023,0.015-0.046,0.032-0.067,0.05
			c-0.035,0.03-0.07,0.06-0.105,0.09c-0.047,0.045-0.082,0.097-0.105,0.156c-0.026,0.053-0.047,0.118-0.049,0.182
			c-0.024,0.042-0.048,0.084-0.067,0.13c-0.021,0.052-0.031,0.11-0.04,0.165c-0.009,0.054-0.001,0.111,0.006,0.164
			c0.004,0.027,0.011,0.052,0.022,0.076c0.022,0.052,0.044,0.106,0.08,0.151c0.048,0.059,0.11,0.122,0.179,0.158
			c0.096,0.05,0.172,0.076,0.283,0.08c0.052,0.002,0.106-0.005,0.157-0.015c0.055-0.01,0.109-0.03,0.16-0.05
			c0.055-0.022,0.107-0.055,0.157-0.086c0.051-0.032,0.096-0.076,0.14-0.116c0.058-0.051,0.104-0.115,0.147-0.178
			c0.043-0.063,0.074-0.135,0.103-0.204c0.015-0.035,0.025-0.071,0.034-0.107c0.016-0.07,0.035-0.143,0.034-0.216
			C179.38,138.284,179.375,138.232,179.368,138.18z"/>
		<path style="fill:#E14A31;" d="M171.583,130.731c-0.008-0.03-0.023-0.056-0.037-0.083c0,0,0-0.001,0-0.001
			c0.006,0.014,0.012,0.027,0.019,0.041c-0.01-0.021-0.013-0.045-0.018-0.067c0.001-0.007,0-0.015,0.001-0.022
			c0.005-0.041-0.002-0.078-0.022-0.112c-0.012-0.037-0.035-0.067-0.07-0.088c-0.023-0.011-0.047-0.022-0.07-0.033
			c-0.042-0.013-0.084-0.015-0.127-0.008c-0.031,0-0.062,0.006-0.09,0.019c-0.049,0.013-0.095,0.034-0.136,0.066
			c-0.026,0.022-0.052,0.045-0.078,0.067c-0.044,0.045-0.077,0.098-0.098,0.157c-0.009,0.037-0.017,0.076-0.023,0.114
			c-0.002,0.013-0.003,0.025-0.004,0.038c0,0.012,0,0.023,0.001,0.035c0.003,0.037,0.004,0.075,0.011,0.111
			c0.002,0.011,0.005,0.023,0.008,0.034c0.002,0.006,0.004,0.012,0.006,0.017c0.001,0.003,0.002,0.005,0.003,0.008
			c0.001,0.001,0.001,0.003,0.002,0.004c0.011,0.024,0.022,0.048,0.033,0.072c0.004,0.005,0.008,0.01,0.012,0.014
			c0.021,0.022,0.043,0.044,0.066,0.064c0.009,0.008,0.019,0.016,0.029,0.024c0.023,0.011,0.046,0.021,0.07,0.032
			c0.042,0.013,0.083,0.015,0.125,0.007c0.031,0,0.061-0.006,0.089-0.019c0.049-0.012,0.094-0.034,0.134-0.065l0.077-0.066
			l0.059-0.075c0.025-0.037,0.041-0.077,0.047-0.12c0.012-0.038,0.012-0.077,0.002-0.117
			C171.593,130.764,171.587,130.748,171.583,130.731z"/>
	</g>
	<g style="opacity:0.47;">
		<path style="fill:#E14A31;" d="M139.102,126.509c-0.014-0.045-0.043-0.08-0.084-0.105c-0.041-0.029-0.085-0.044-0.134-0.046
			c-0.052-0.012-0.104-0.01-0.156,0.004c-0.037,0.012-0.074,0.024-0.11,0.036c-0.076,0.034-0.144,0.081-0.202,0.142
			c-0.024,0.031-0.047,0.061-0.071,0.091c-0.038,0.06-0.06,0.124-0.067,0.195v0.129c-0.006,0.049,0.003,0.094,0.027,0.134
			c0.014,0.045,0.042,0.08,0.084,0.105c0.041,0.029,0.085,0.044,0.134,0.046c0.052,0.012,0.104,0.01,0.156-0.003
			c0.037-0.012,0.073-0.024,0.11-0.036c0.076-0.034,0.144-0.081,0.202-0.141c0.024-0.031,0.047-0.061,0.071-0.091
			c0.038-0.06,0.06-0.124,0.067-0.195v-0.129C139.135,126.595,139.126,126.55,139.102,126.509z"/>
		<path style="fill:#E14A31;" d="M143.331,125.469c-0.41,0-0.794,0.729-0.25,0.729C143.492,126.198,143.876,125.469,143.331,125.469
			z"/>
		<path style="fill:#E14A31;" d="M148.264,125.166c-0.007-0.06-0.019-0.119-0.036-0.177c-0.007-0.022-0.017-0.042-0.028-0.063
			c-0.01-0.06-0.031-0.119-0.087-0.153c-0.08-0.049-0.162-0.048-0.253-0.037c-0.102-0.005-0.206,0.004-0.292,0.051
			c-0.042,0.023-0.08,0.047-0.12,0.071c-0.169,0.078-0.324,0.185-0.448,0.319c-0.228,0.247-0.356,0.564-0.381,0.898
			c-0.007,0.086,0.025,0.167,0.085,0.227c0.066,0.065,0.142,0.085,0.235,0.093c0.134,0.012,0.267,0.005,0.401-0.016
			c0.166-0.025,0.314-0.094,0.456-0.179c0.069-0.041,0.132-0.098,0.189-0.153c0.057-0.055,0.107-0.12,0.147-0.187
			c0.081-0.132,0.128-0.28,0.143-0.434C148.284,125.341,148.273,125.252,148.264,125.166z"/>
		<path style="fill:#E14A31;" d="M155.119,126.917c-0.011-0.053-0.037-0.095-0.078-0.127c-0.033-0.041-0.076-0.067-0.13-0.079
			c-0.014-0.005-0.027-0.011-0.04-0.016c-0.031-0.005-0.061-0.009-0.092-0.013c-0.053-0.002-0.103,0.007-0.151,0.027
			c-0.037,0.008-0.071,0.023-0.102,0.045c-0.053,0.025-0.098,0.06-0.138,0.104l-0.051,0.046c-0.026,0.034-0.053,0.067-0.079,0.101
			c-0.034,0.049-0.055,0.103-0.063,0.161c-0.012,0.035-0.015,0.07-0.007,0.105c-0.003,0.035,0.006,0.068,0.025,0.097
			c0.016,0.049,0.047,0.088,0.093,0.117l0.094,0.043l0.109,0.016c0.063,0.002,0.122-0.008,0.18-0.032
			c0.044-0.01,0.084-0.027,0.121-0.053c0.042-0.019,0.08-0.045,0.112-0.078c0.053-0.039,0.097-0.088,0.131-0.146
			c0.017-0.036,0.034-0.072,0.052-0.107c0.007-0.036,0.015-0.072,0.022-0.108C155.125,126.986,155.122,126.951,155.119,126.917z"/>
		<path style="fill:#E14A31;" d="M157.253,129.378c-0.499,0-0.966,0.887-0.304,0.887
			C157.448,130.265,157.915,129.378,157.253,129.378z"/>
		<path style="fill:#E14A31;" d="M148.905,131.598c-0.007-0.061-0.021-0.121-0.043-0.179c-0.067-0.176-0.165-0.333-0.33-0.435
			c-0.199-0.124-0.434-0.161-0.664-0.12c-0.066,0.012-0.132,0.034-0.197,0.06c-0.216,0.064-0.397,0.207-0.535,0.394
			c-0.134,0.183-0.207,0.411-0.236,0.634c-0.028,0.223,0.015,0.443,0.129,0.637c0.132,0.226,0.372,0.332,0.622,0.359
			c0.133,0.015,0.277-0.003,0.405-0.039c0.28-0.079,0.506-0.244,0.67-0.484c0.108-0.157,0.167-0.352,0.187-0.54
			C148.925,131.79,148.916,131.693,148.905,131.598z"/>
		<path style="fill:#E14A31;" d="M125.39,125.563c-0.002-0.004-0.005-0.007-0.007-0.011c-0.028-0.069-0.036-0.142-0.053-0.213
			c0.025-0.063,0.035-0.13,0.017-0.199c-0.024-0.09-0.086-0.141-0.162-0.169c-0.006-0.015-0.013-0.03-0.019-0.046
			c-0.032-0.077-0.066-0.153-0.101-0.229c-0.038-0.052-0.089-0.087-0.151-0.104c-0.069-0.018-0.138-0.02-0.208-0.004
			c-0.155,0.032-0.305,0.136-0.388,0.272c-0.117,0.193-0.223,0.39-0.304,0.6c-0.047,0.122-0.019,0.274,0.094,0.349
			c0.032,0.021,0.064,0.041,0.099,0.057c0.051,0.024,0.102,0.052,0.157,0.064c0.132,0.028,0.257,0.012,0.382-0.034
			c0.001,0.001,0.002,0.002,0.002,0.003c0.056,0.058,0.091,0.092,0.176,0.104c0.163,0.024,0.336-0.074,0.421-0.212
			C125.383,125.73,125.416,125.636,125.39,125.563z"/>
		<path style="fill:#E14A31;" d="M126.366,121.303c-0.465,0-0.901,0.827-0.283,0.827
			C126.548,122.13,126.983,121.303,126.366,121.303z"/>
		<path style="fill:#E14A31;" d="M130.185,131.409c-0.006-0.04-0.011-0.081-0.016-0.121c-0.011-0.054-0.038-0.097-0.079-0.13
			c-0.034-0.041-0.078-0.068-0.132-0.08c-0.037-0.005-0.074-0.011-0.111-0.016c-0.064-0.002-0.125,0.008-0.183,0.032
			c-0.045,0.01-0.085,0.028-0.123,0.054c-0.063,0.031-0.119,0.072-0.167,0.125c-0.027,0.034-0.053,0.069-0.08,0.103
			c-0.043,0.067-0.068,0.14-0.075,0.219l-0.017,0.132c-0.006,0.075,0.012,0.143,0.054,0.205c0.025,0.025,0.051,0.05,0.076,0.075
			c0.065,0.042,0.136,0.062,0.214,0.063c0.066,0.002,0.129-0.009,0.189-0.033c0.069-0.018,0.132-0.048,0.19-0.092
			c0.061-0.039,0.111-0.088,0.151-0.147c0.044-0.048,0.076-0.104,0.096-0.167C130.197,131.559,130.202,131.484,130.185,131.409z"/>
		<path style="fill:#E14A31;" d="M161.519,128.16c0-0.008-0.007-0.093-0.009-0.101c0-0.001,0-0.002-0.001-0.003
			c0-0.001-0.001-0.002-0.001-0.003c0-0.001-0.001-0.001-0.001-0.002c0-0.001-0.039-0.085-0.039-0.086c0,0,0-0.001,0-0.001
			c-0.002-0.003-0.003-0.005-0.005-0.008c-0.021-0.026-0.047-0.049-0.072-0.071c-0.039-0.028-0.082-0.042-0.129-0.045
			c-0.019-0.004-0.038,0.002-0.058,0.001c-0.007-0.001-0.013-0.002-0.02-0.003c-0.014,0.001-0.029,0.003-0.043,0.004
			c-0.01,0.002-0.02-0.002-0.029,0.001c-0.003,0.001-0.007,0.002-0.01,0.003c-0.013,0.001-0.025,0.003-0.038,0.004
			c-0.005,0.002-0.009,0.003-0.014,0.005c-0.008,0.002-0.017,0.004-0.025,0.005c0.005,0,0.009-0.001,0.014-0.001
			c-0.005,0.002-0.01,0.003-0.014,0.005c-0.033,0.005-0.066,0.005-0.098,0.017c-0.066,0.017-0.127,0.046-0.182,0.088
			c-0.035,0.03-0.07,0.06-0.105,0.09c-0.047,0.045-0.082,0.097-0.106,0.156c-0.021,0.033-0.034,0.07-0.037,0.109
			c-0.016,0.052-0.017,0.105-0.002,0.158c0.014,0.031,0.028,0.062,0.042,0.093c0.042,0.058,0.098,0.096,0.167,0.115
			c0.04,0.006,0.08,0.012,0.12,0.017c0.004,0.001,0.008,0.001,0.012,0.001c0.007,0.001,0.013,0.001,0.02,0
			c0.003,0,0.006,0,0.009-0.001c0.041-0.004,0.083-0.007,0.124-0.012c0.002,0,0.003-0.001,0.005-0.001
			c0.003-0.001,0.005-0.001,0.008-0.002c0.001,0,0.002-0.001,0.004-0.001c0.001,0,0.001,0,0.002-0.001
			c0.021-0.007,0.042-0.013,0.063-0.021c0.021-0.007,0.042-0.013,0.063-0.02c0.002-0.001,0.12-0.067,0.122-0.069
			c0.001-0.001,0.106-0.09,0.106-0.091c0.001-0.001,0.08-0.102,0.08-0.103c0.001-0.001,0.052-0.109,0.053-0.11
			c0.001-0.001,0.001-0.002,0.001-0.004c0-0.001,0-0.001,0.001-0.002c0.001-0.005,0.022-0.103,0.022-0.108c0-0.001,0-0.002,0-0.003
			C161.519,128.161,161.519,128.16,161.519,128.16z"/>
		<g>
			<path style="fill:#E14A31;" d="M164.623,121.907c-0.017-0.066-0.054-0.118-0.11-0.157c-0.038-0.036-0.075-0.073-0.116-0.107
				c-0.009-0.007-0.018-0.015-0.028-0.021c-0.004-0.002-0.007-0.005-0.011-0.007c-0.022-0.012-0.098-0.041-0.112-0.048
				c-0.067-0.018-0.094-0.014-0.16-0.008c-0.093,0.009-0.067,0.003-0.187,0.047c-0.001,0.001-0.003,0.001-0.004,0.002
				c-0.087,0.039-0.165,0.092-0.231,0.161c-0.03,0.032-0.057,0.066-0.08,0.103c-0.035,0.058-0.074,0.147-0.074,0.217
				c0,0.002,0.009,0.102,0.009,0.103c0.007,0.033,0.023,0.065,0.042,0.092c0.001,0.001,0.002,0.002,0.003,0.003
				c0,0,0.001,0.001,0.001,0.001l0-0.001c0.002,0.002,0.005,0.004,0.006,0.006c0.018,0.028,0.039,0.052,0.069,0.071
				c0.031,0.017,0.063,0.032,0.097,0.045c0.003,0.001,0.005,0.001,0.008,0.002c0.006,0.002,0.013,0.004,0.019,0.006
				c0.001,0,0.001,0.001,0.002,0.001c0.018,0.009,0.035,0.017,0.053,0.026c0.007,0.004,0.014,0.007,0.022,0.011
				c0.044,0.031,0.091,0.047,0.143,0.05c0.055,0.012,0.111,0.011,0.167-0.004c0.064-0.012,0.122-0.035,0.175-0.071
				c0.06-0.029,0.113-0.069,0.158-0.119c0.025-0.033,0.051-0.065,0.076-0.098c0.041-0.064,0.064-0.133,0.071-0.208
				C164.629,121.973,164.626,121.94,164.623,121.907z"/>
			<path style="fill:#E14A31;" d="M164.247,121.567c0.005,0.001,0.008,0.001,0.014,0.003
				C164.244,121.564,164.242,121.564,164.247,121.567z"/>
		</g>
		<path style="fill:#E14A31;" d="M159.828,121.39c-0.043-0.054-0.114-0.094-0.185-0.088c-0.049,0.005-0.098,0.01-0.147,0.015
			c-0.027,0.003-0.055,0.005-0.083,0.007c-0.009-0.066-0.036-0.134-0.093-0.169c-0.079-0.049-0.177-0.062-0.267-0.04
			c-0.106,0.026-0.215,0.079-0.288,0.163c-0.067,0.078-0.124,0.153-0.159,0.251c-0.01,0.03-0.017,0.069-0.02,0.101
			c-0.001,0.013,0.002,0.066,0.009,0.095c0.003,0.012,0.021,0.047,0.018,0.041c-0.007-0.015,0.012,0.031,0.019,0.041
			c0.017,0.023,0.048,0.053,0.064,0.064c0.003,0.002,0.007,0.005,0.01,0.007c0.018,0.011,0.056,0.028,0.076,0.035
			c0.002,0.001,0.005,0.002,0.007,0.003c0.036,0.011,0.075,0.015,0.113,0.017c0.035,0.002,0.07-0.006,0.104-0.011
			c0.173,0.002,0.347-0.032,0.519-0.057c0.044-0.008,0.085-0.025,0.122-0.049c0.042-0.02,0.079-0.048,0.11-0.083
			c0.046-0.052,0.081-0.108,0.095-0.177C159.866,121.503,159.865,121.436,159.828,121.39z"/>
		<path style="fill:#E14A31;" d="M157.748,135.867c-0.436,0-0.844,0.775-0.265,0.775
			C157.919,136.641,158.326,135.867,157.748,135.867z"/>
		<path style="fill:#E14A31;" d="M152.592,137.698c-0.402,0-0.778,0.714-0.245,0.714
			C152.749,138.413,153.125,137.698,152.592,137.698z"/>
		<path style="fill:#E14A31;" d="M143.72,135.496c-0.419,0-0.811,0.745-0.255,0.745C143.884,136.24,144.276,135.496,143.72,135.496z
			"/>
		<path style="fill:#E14A31;" d="M146.431,131.604c-0.023-0.022-0.045-0.044-0.068-0.066c-0.058-0.037-0.121-0.056-0.19-0.056
			c-0.037,0.004-0.074,0.007-0.111,0.011c-0.082,0.018-0.158,0.052-0.227,0.1c-0.051,0.042-0.109,0.086-0.151,0.139
			c-0.028,0.035-0.056,0.069-0.082,0.106c-0.004,0.005-0.008,0.011-0.011,0.016c-0.025,0.041-0.044,0.086-0.063,0.129
			c-0.023,0.051-0.031,0.113-0.041,0.165c-0.005,0.027-0.006,0.053-0.004,0.08c-0.006,0.049,0.003,0.094,0.027,0.134
			c0.014,0.045,0.042,0.08,0.084,0.105c0.041,0.029,0.085,0.044,0.134,0.046c0.052,0.012,0.104,0.01,0.156-0.003
			c0.037-0.012,0.074-0.024,0.11-0.036c0.077-0.034,0.144-0.081,0.202-0.141c0.024-0.031,0.047-0.061,0.071-0.091
			c0.032-0.05,0.05-0.104,0.06-0.161c0.014-0.016,0.034-0.027,0.046-0.045c0.039-0.043,0.067-0.092,0.085-0.148
			c0.02-0.049,0.026-0.099,0.017-0.15C146.476,131.689,146.462,131.644,146.431,131.604z"/>
		<path style="fill:#E14A31;" d="M137.436,132.603c-0.016-0.06-0.049-0.107-0.1-0.143c-0.027-0.013-0.055-0.025-0.082-0.038
			c-0.03-0.008-0.06-0.011-0.09-0.013c-0.001-0.033-0.002-0.066-0.019-0.095c-0.013-0.042-0.04-0.074-0.078-0.098
			c-0.026-0.012-0.053-0.024-0.079-0.036c-0.047-0.014-0.094-0.017-0.142-0.008c-0.035,0-0.069,0.007-0.101,0.021
			c-0.055,0.014-0.106,0.038-0.152,0.073l-0.088,0.075c-0.049,0.051-0.086,0.109-0.11,0.176c-0.015,0.067-0.034,0.138-0.033,0.208
			c0,0.045,0.004,0.091,0.011,0.136c0.002,0.014,0.006,0.028,0.011,0.041c0.013,0.033,0.027,0.065,0.044,0.096
			c0.003,0.006,0.007,0.011,0.01,0.017c0.016,0.021,0.06,0.067,0.093,0.085c0.003,0.001,0.005,0.003,0.008,0.004
			c0.029,0.014,0.059,0.029,0.089,0.041c0.006,0.003,0.013,0.005,0.019,0.006c0.022,0.006,0.046,0.008,0.067,0.011
			c0.023,0.003,0.046,0.008,0.07,0.009c0.008,0,0.017,0,0.026,0c0.044-0.003,0.088-0.007,0.131-0.013
			c0.022-0.003,0.043-0.008,0.064-0.014c0.058-0.011,0.111-0.032,0.159-0.064c0.055-0.026,0.102-0.062,0.143-0.108
			c0.041-0.039,0.071-0.084,0.092-0.136c0.026-0.043,0.04-0.091,0.042-0.142C137.442,132.663,137.439,132.633,137.436,132.603z"/>
		<path style="fill:#E14A31;" d="M134.412,133.918c-0.016-0.079-0.033-0.157-0.049-0.236c-0.007-0.033-0.023-0.06-0.049-0.08
			c-0.021-0.025-0.048-0.042-0.081-0.049c-0.023-0.003-0.046-0.007-0.069-0.01c-0.039-0.001-0.077,0.005-0.113,0.02
			c-0.028,0.006-0.053,0.017-0.076,0.034c-0.039,0.019-0.074,0.045-0.103,0.077c-0.017,0.021-0.033,0.042-0.05,0.064
			c-0.027,0.041-0.042,0.087-0.046,0.135c-0.017,0.089-0.033,0.179-0.05,0.268c-0.004,0.052,0.008,0.1,0.037,0.143
			c0.018,0.017,0.035,0.035,0.053,0.052c0.045,0.029,0.095,0.044,0.149,0.044c0.046,0.002,0.09-0.006,0.132-0.023
			c0.048-0.012,0.092-0.034,0.132-0.064c0.042-0.028,0.077-0.062,0.105-0.103c0.031-0.034,0.053-0.072,0.067-0.116
			C134.42,134.022,134.424,133.971,134.412,133.918z"/>
		<path style="fill:#E14A31;" d="M131.967,131.86c-0.008-0.039-0.027-0.07-0.057-0.093c-0.025-0.03-0.056-0.049-0.095-0.058
			l-0.111-0.029c-0.061-0.016-0.122-0.017-0.184-0.003c-0.07,0.016-0.135,0.044-0.195,0.086c-0.028,0.024-0.056,0.048-0.084,0.072
			c-0.047,0.049-0.082,0.105-0.105,0.168c-0.017,0.042-0.022,0.085-0.014,0.128c-0.001,0.042,0.012,0.081,0.037,0.115
			c0.07,0.1,0.206,0.12,0.317,0.095l0.131-0.029c0.03-0.01,0.06-0.019,0.09-0.029c0.048-0.019,0.09-0.047,0.126-0.082
			c0.027-0.019,0.049-0.042,0.067-0.07c0.031-0.034,0.053-0.072,0.067-0.116c0.005-0.026,0.011-0.053,0.016-0.079
			C131.972,131.91,131.97,131.885,131.967,131.86z"/>
		<path style="fill:#E14A31;" d="M153.869,139.784c-0.035-0.054-0.083-0.09-0.141-0.11c-0.057-0.033-0.118-0.048-0.186-0.045
			c-0.1,0-0.195,0.02-0.286,0.061c-0.095,0.042-0.188,0.104-0.261,0.18c-0.009,0.006-0.019,0.007-0.027,0.013
			c-0.036,0.031-0.071,0.061-0.107,0.092c-0.027,0.035-0.054,0.069-0.081,0.104c-0.035,0.051-0.057,0.106-0.064,0.166
			c-0.016,0.053-0.017,0.107-0.002,0.161c0.007,0.028,0.014,0.056,0.018,0.085c0.002,0.016,0.003,0.033,0.006,0.05
			c0.001,0.005,0.002,0.011,0.004,0.016c0.001,0.001,0.001,0.003,0.002,0.004c0.008,0.02,0.035,0.081,0.046,0.1
			c0.001,0.002,0.003,0.005,0.004,0.007c0.002,0.002,0.003,0.004,0.005,0.006c0.001,0.001,0.002,0.003,0.003,0.004
			c0.023,0.024,0.055,0.056,0.079,0.078c0.006,0.006,0.012,0.011,0.019,0.016c0.027,0.02,0.055,0.038,0.082,0.056
			c0.143,0.096,0.333,0.074,0.483,0.009c0.092-0.041,0.173-0.098,0.243-0.171c0.064-0.066,0.111-0.142,0.142-0.228
			c0.011-0.034,0.021-0.069,0.033-0.103c0.021-0.058,0.032-0.121,0.042-0.181c0.008-0.046,0.005-0.093,0.006-0.139
			C153.936,139.931,153.916,139.854,153.869,139.784z"/>
		<path style="fill:#E14A31;" d="M164.841,126.324c-0.016-0.04-0.034-0.083-0.055-0.121c-0.003-0.006-0.007-0.011-0.011-0.016
			c-0.028-0.034-0.063-0.065-0.096-0.095c-0.005-0.004-0.01-0.009-0.015-0.013c-0.011-0.009-0.023-0.015-0.035-0.022
			c-0.046-0.023-0.097-0.052-0.149-0.065c-0.056-0.014-0.114-0.021-0.172-0.025c-0.019-0.001-0.038-0.001-0.057,0.001
			c-0.066,0.006-0.134,0.009-0.199,0.024c-0.011,0.003-0.022,0.006-0.033,0.009c-0.006,0.002-0.011,0.004-0.017,0.005
			c-0.034,0.011-0.114,0.034-0.146,0.048c-0.002,0.001-0.004,0.002-0.006,0.002c-0.047,0.027-0.094,0.053-0.14,0.079
			c-0.011,0.008-0.022,0.016-0.032,0.024c-0.005,0.004-0.01,0.008-0.015,0.012c-0.006,0.005-0.018,0.015-0.027,0.022
			c-0.011,0.007-0.023,0.011-0.033,0.018c-0.078,0.049-0.143,0.13-0.194,0.204c-0.031,0.044-0.055,0.095-0.071,0.146
			c-0.012,0.039-0.02,0.08-0.026,0.12c-0.002,0.011-0.003,0.023-0.003,0.034c0.001,0.118,0.027,0.206,0.088,0.309
			c0.016,0.028,0.036,0.054,0.058,0.078c0.041,0.046,0.085,0.092,0.134,0.13c0.057,0.045,0.128,0.077,0.195,0.102
			c0.015,0.006,0.03,0.009,0.046,0.012c0.049,0.009,0.104,0.021,0.156,0.02c0.048-0.002,0.097-0.007,0.144-0.014
			c0.007-0.001,0.014-0.002,0.021-0.004c0.049-0.012,0.098-0.029,0.145-0.046c0.007-0.003,0.014-0.005,0.02-0.008
			c0.006-0.003,0.011-0.006,0.016-0.008c0.048-0.026,0.098-0.051,0.143-0.082c0.006-0.004,0.011-0.008,0.016-0.012
			c0.043-0.034,0.087-0.07,0.126-0.109c0.043-0.041,0.077-0.093,0.112-0.14c0.008-0.011,0.016-0.022,0.022-0.034
			c0.027-0.05,0.053-0.102,0.074-0.155c0.005-0.013,0.009-0.026,0.012-0.04c0.015-0.062,0.035-0.133,0.032-0.199
			C164.865,126.455,164.865,126.384,164.841,126.324z"/>
		<path style="fill:#E14A31;" d="M152.381,122.964l-0.072-0.071c-0.062-0.04-0.13-0.06-0.204-0.06
			c-0.063-0.002-0.123,0.008-0.181,0.032c-0.066,0.017-0.126,0.046-0.182,0.088c-0.058,0.038-0.106,0.084-0.144,0.141
			c-0.042,0.046-0.072,0.099-0.092,0.159c-0.007,0.036-0.015,0.072-0.022,0.109c-0.005,0.071,0.012,0.136,0.051,0.196l0.072,0.071
			c0.062,0.04,0.13,0.06,0.204,0.06c0.063,0.002,0.123-0.008,0.181-0.032c0.066-0.017,0.126-0.046,0.182-0.088
			c0.058-0.038,0.106-0.084,0.144-0.141c0.042-0.046,0.072-0.099,0.092-0.159c0.007-0.036,0.015-0.073,0.022-0.109
			C152.438,123.089,152.421,123.023,152.381,122.964z"/>
		<path style="fill:#E14A31;" d="M132.021,125.814c-0.002-0.016-0.005-0.032-0.01-0.048c-0.014-0.048-0.038-0.094-0.06-0.138
			c-0.007-0.013-0.014-0.026-0.023-0.038c-0.03-0.039-0.068-0.074-0.106-0.105c-0.039-0.032-0.092-0.05-0.136-0.069
			c-0.015-0.007-0.03-0.012-0.046-0.015c-0.054-0.012-0.112-0.022-0.169-0.022c-0.063,0-0.126,0.008-0.188,0.017
			c-0.081,0.013-0.155,0.047-0.225,0.087c-0.031,0.018-0.064,0.035-0.094,0.054c-0.023,0.015-0.046,0.033-0.067,0.05
			c-0.035,0.03-0.07,0.06-0.105,0.09c-0.047,0.045-0.082,0.097-0.105,0.156c-0.026,0.053-0.047,0.118-0.049,0.182
			c-0.024,0.042-0.048,0.084-0.067,0.13c-0.021,0.052-0.031,0.11-0.04,0.165c-0.009,0.054-0.001,0.111,0.006,0.164
			c0.004,0.027,0.012,0.052,0.022,0.076c0.022,0.052,0.044,0.106,0.08,0.151c0.048,0.059,0.109,0.122,0.179,0.158
			c0.096,0.05,0.172,0.076,0.283,0.08c0.052,0.002,0.106-0.005,0.157-0.014c0.055-0.01,0.109-0.03,0.16-0.051
			c0.055-0.022,0.107-0.055,0.157-0.086c0.051-0.032,0.096-0.076,0.14-0.116c0.058-0.051,0.104-0.115,0.147-0.178
			c0.043-0.063,0.074-0.135,0.103-0.204c0.015-0.035,0.026-0.071,0.034-0.107c0.016-0.07,0.034-0.143,0.034-0.216
			C132.033,125.917,132.027,125.865,132.021,125.814z"/>
		<path style="fill:#E14A31;" d="M124.235,118.365c-0.008-0.03-0.023-0.056-0.037-0.083c0,0,0-0.001,0-0.001
			c0.006,0.013,0.012,0.027,0.019,0.041c-0.01-0.021-0.013-0.045-0.018-0.067c0-0.007,0-0.015,0-0.022
			c0.005-0.041-0.002-0.078-0.022-0.112c-0.012-0.037-0.035-0.067-0.07-0.088c-0.023-0.011-0.047-0.022-0.07-0.033
			c-0.042-0.013-0.084-0.015-0.127-0.007c-0.032,0-0.062,0.006-0.09,0.019c-0.049,0.013-0.095,0.034-0.136,0.066
			c-0.026,0.022-0.052,0.045-0.078,0.067c-0.044,0.045-0.077,0.098-0.098,0.157c-0.009,0.037-0.017,0.076-0.023,0.114
			c-0.002,0.013-0.003,0.025-0.004,0.038c-0.001,0.012,0,0.023,0.001,0.035c0.002,0.037,0.004,0.075,0.011,0.112
			c0.002,0.011,0.005,0.023,0.008,0.034c0.002,0.006,0.004,0.012,0.006,0.017c0.001,0.003,0.002,0.005,0.003,0.008
			c0,0.001,0.001,0.003,0.002,0.004c0.011,0.024,0.022,0.048,0.033,0.072c0.004,0.005,0.007,0.01,0.012,0.014
			c0.022,0.022,0.043,0.044,0.066,0.064c0.009,0.008,0.019,0.016,0.029,0.024c0.023,0.011,0.046,0.022,0.07,0.032
			c0.042,0.013,0.083,0.015,0.125,0.007c0.031,0,0.061-0.006,0.089-0.019c0.049-0.013,0.093-0.034,0.134-0.065l0.077-0.066
			l0.059-0.075c0.025-0.037,0.041-0.077,0.047-0.12c0.012-0.038,0.012-0.077,0.002-0.117
			C124.245,118.398,124.24,118.382,124.235,118.365z"/>
	</g>
	<g>
		<g>
			<circle style="fill:#92422B;" cx="188.654" cy="117.657" r="8.144"/>
			<path style="fill:#1A1716;" d="M194.718,117.657c0,3.349-2.715,6.064-6.064,6.064s-6.064-2.715-6.064-6.064
				s2.715-6.064,6.064-6.064S194.718,114.308,194.718,117.657z"/>
			<path style="fill:#FFFFFF;" d="M187.874,114.31c0,1.326-1.075,2.401-2.402,2.401c-1.326,0-2.402-1.075-2.402-2.401
				s1.075-2.402,2.402-2.402C186.798,111.908,187.874,112.983,187.874,114.31z"/>
			<circle style="fill:#FFFFFF;" cx="182.867" cy="117.863" r="0.709"/>
		</g>
	</g>
	<g>
		<path style="fill:#D3242F;" d="M198.038,93.123c-24.139-4.526-43.889,15.773-43.889,15.773
			c-7.464-3.064-13.715-0.411-13.715-0.411s-14.95-14.264-33.603-15.773c-18.653-1.509-33.74,11.354-35.797,11.354
			c-2.057,0-8.511,0-8.511,0v7.701c0,0,4.103,1.07,5.716,8.273c1.613,7.204,2.796,35.59,33.117,36.02
			c29.405,0.417,36.968-25.458,36.417-40.555c-0.028-0.757,0.584-1.378,1.341-1.378h17.565c0.745,0,1.348,0.606,1.344,1.351
			l-0.017,3.522c0.591,15.276,8.786,37.449,36.161,37.061c30.321-0.43,31.504-28.816,33.117-36.02
			c1.613-7.204,5.716-8.273,5.716-8.273v-7.701C216.663,106.093,222.177,97.649,198.038,93.123z M131.827,125.879
			c-2.677,13.514-13.45,25.772-29.72,25.772c-16.271,0-26.306-12.607-27.218-26.354c-1.358-20.467,13.42-27.084,29.691-27.084
			S135.805,105.8,131.827,125.879z M220.557,125.297c-0.912,13.747-10.947,26.354-27.218,26.354
			c-16.271,0-27.044-12.258-29.72-25.772c-3.977-20.079,10.977-27.666,27.247-27.666C207.137,98.213,221.915,104.83,220.557,125.297
			z"/>
	</g>
	<g>
		<path d="M136.199,241.854c-0.023-0.231-0.341,0.098-0.362,0.198c-0.274,1.313-0.336,2.672-0.442,4.007
			c-0.113,1.416-0.212,2.833-0.302,4.251c-0.183,2.861-0.323,5.724-0.443,8.588c-0.239,5.715-0.378,11.433-0.436,17.152
			c-0.016,1.609-0.023,3.219-0.023,4.829c0,1.588-0.091,3.215,0.094,4.793c0.069,0.583,0.879-0.102,0.91-0.423
			c0.135-1.41,0.068-2.838,0.067-4.253c-0.001-1.409,0.006-2.817,0.014-4.226c0.016-2.815,0.049-5.629,0.103-8.444
			c0.11-5.663,0.32-11.32,0.536-16.98c0.061-1.597,0.136-3.193,0.196-4.79C136.17,245.006,136.354,243.4,136.199,241.854z"/>
		<path d="M146.064,242.71c-0.036-0.226-0.336,0.115-0.351,0.214c-0.203,1.303-0.192,2.639-0.227,3.953
			c-0.037,1.395-0.06,2.79-0.074,4.185c-0.029,2.816-0.016,5.631,0.018,8.446c0.067,5.617,0.235,11.232,0.484,16.844
			c0.07,1.579,0.15,3.158,0.236,4.736c0.085,1.557,0.081,3.158,0.351,4.695c0.1,0.568,0.872-0.148,0.886-0.465
			c0.06-1.39-0.085-2.787-0.161-4.174c-0.076-1.381-0.145-2.763-0.213-4.145c-0.135-2.761-0.253-5.523-0.349-8.286
			c-0.194-5.559-0.287-11.119-0.374-16.68c-0.025-1.569-0.035-3.139-0.061-4.708C146.204,245.802,146.303,244.218,146.064,242.71z"
			/>
		<path d="M155.759,241.486c-0.043-0.217-0.332,0.123-0.344,0.22c-0.161,1.269-0.107,2.562-0.099,3.837
			c0.008,1.352,0.031,2.704,0.062,4.056c0.062,2.728,0.167,5.454,0.292,8.179c0.25,5.438,0.6,10.87,1.031,16.296
			c0.121,1.527,0.252,3.053,0.39,4.578c0.135,1.505,0.184,3.055,0.503,4.534c0.118,0.547,0.867-0.176,0.87-0.483
			c0.015-1.349-0.175-2.696-0.296-4.037c-0.121-1.335-0.235-2.671-0.347-4.006c-0.224-2.669-0.432-5.34-0.618-8.012
			c-0.374-5.377-0.648-10.758-0.916-16.141c-0.076-1.519-0.137-3.039-0.214-4.558C155.999,244.476,156.046,242.938,155.759,241.486z
			"/>
		<path d="M163.633,239.684c-0.056-0.207-0.323,0.142-0.329,0.236c-0.083,1.238,0.051,2.484,0.137,3.715
			c0.091,1.306,0.197,2.611,0.31,3.915c0.23,2.632,0.501,5.259,0.793,7.884c0.582,5.237,1.265,10.462,2.028,15.676
			c0.215,1.467,0.439,2.933,0.67,4.397c0.227,1.445,0.37,2.939,0.78,4.347c0.151,0.52,0.854-0.23,0.838-0.527
			c-0.068-1.304-0.34-2.593-0.543-3.88c-0.202-1.282-0.398-2.564-0.592-3.847c-0.387-2.564-0.759-5.13-1.108-7.699
			c-0.703-5.17-1.306-10.351-1.903-15.534c-0.168-1.463-0.323-2.927-0.493-4.389C164.056,242.557,164.008,241.067,163.633,239.684z"
			/>
		<path d="M171.163,237.063c-0.054-0.192-0.324,0.136-0.331,0.224c-0.096,1.156,0.025,2.316,0.098,3.464
			c0.077,1.218,0.169,2.434,0.269,3.649c0.201,2.453,0.445,4.901,0.708,7.347c0.526,4.88,1.152,9.747,1.859,14.603
			c0.199,1.366,0.407,2.731,0.622,4.095c0.212,1.345,0.339,2.738,0.733,4.047c0.146,0.483,0.855-0.224,0.842-0.5
			c-0.054-1.216-0.312-2.415-0.501-3.615c-0.188-1.194-0.37-2.388-0.55-3.583c-0.36-2.388-0.703-4.778-1.025-7.171
			c-0.647-4.816-1.195-9.643-1.736-14.472c-0.153-1.363-0.292-2.727-0.446-4.09C171.555,239.738,171.523,238.349,171.163,237.063z"
			/>
		<path d="M125.648,239.022c-0.01-0.232-0.346,0.079-0.372,0.177c-0.347,1.296-0.484,2.649-0.665,3.976
			c-0.191,1.408-0.369,2.817-0.538,4.227c-0.341,2.846-0.641,5.697-0.92,8.55c-0.557,5.692-1.013,11.394-1.389,17.101
			c-0.106,1.606-0.201,3.213-0.291,4.82c-0.088,1.585-0.27,3.205-0.172,4.791c0.036,0.586,0.883-0.053,0.932-0.372
			c0.214-1.4,0.225-2.83,0.303-4.243c0.078-1.406,0.162-2.813,0.249-4.218c0.173-2.809,0.362-5.618,0.572-8.425
			c0.425-5.648,0.949-11.285,1.48-16.923c0.15-1.591,0.314-3.181,0.462-4.772C125.444,242.168,125.717,240.575,125.648,239.022z"/>
		<path d="M116.099,235.618c-0.007-0.232-0.348,0.073-0.375,0.171c-0.367,1.291-0.525,2.641-0.727,3.965
			c-0.213,1.405-0.413,2.811-0.604,4.219c-0.386,2.841-0.73,5.686-1.054,8.535c-0.646,5.683-1.191,11.377-1.656,17.078
			c-0.131,1.604-0.252,3.209-0.366,4.815c-0.113,1.583-0.32,3.2-0.247,4.788c0.027,0.587,0.884-0.04,0.938-0.357
			c0.236-1.397,0.27-2.826,0.37-4.237c0.1-1.405,0.206-2.81,0.315-4.214c0.217-2.806,0.449-5.611,0.704-8.415
			c0.513-5.64,1.125-11.269,1.744-16.898c0.175-1.589,0.363-3.175,0.537-4.764C115.845,238.76,116.144,237.172,116.099,235.618z"/>
	</g>
</g>
</svg>
