<?xml version="1.0" encoding="utf-8"?>
<!-- Generator: Adobe Illustrator 27.5.0, SVG Export Plug-In . SVG Version: 6.00 Build 0)  -->
<svg version="1.1" id="Layer_1" xmlns="http://www.w3.org/2000/svg" xmlns:xlink="http://www.w3.org/1999/xlink" x="0px" y="0px"
	 viewBox="0 0 1901.832 2794.18" style="enable-background:new 0 0 1901.832 2794.18;" xml:space="preserve">
<g>
	<path style="fill:#7F2910;" d="M1618.787,870.261c-12.902-71.706-42.57-141.274-78.882-204.169
		c-32.481-56.259-72.144-108.369-117.437-154.923c-45.452-46.718-96.525-88.036-152.31-121.806
		c-54.889-33.227-114.397-59.25-176.608-75.195c-62.025-15.897-126.67-21.674-190.457-15.494
		c-67.829,6.573-136.241,25.493-195.507,59.61c-31.717,18.258-58.491,41.544-83.733,67.83c-1.226,1.277-2.481,2.527-3.716,3.795
		c1.242-2.026,2.447-4.074,3.576-6.171c3.186-5.92,5.794-12.116,7.454-18.639c0.627-2.463-2.992-1.871-3.554-0.065
		c-4.7,15.113-14.439,28.111-24.772,39.862c-11.273,12.818-23.938,24.35-36.66,35.698c-28.01,24.984-54.699,51.156-81.204,77.737
		c-30.321,30.409-60.32,61.183-89.701,92.503c-24.695,26.325-48.338,53.667-70.013,82.544
		c-42.829,57.062-77.871,121.386-92.376,191.763c-7.423,36.017-9.157,72.694-4.392,109.185c4.875,37.33,15.778,73.869,31.849,107.9
		c13.803,29.225,31.95,56.55,53.48,80.659c20.642,23.116,45.925,45.705,76.287,54.579c6.95,2.031,14.078,3.199,21.315,3.416
		c2.133,0.063,7.171-3.549,4.703-5.979c-14.615-14.385-27.046-31.312-37.459-48.936c-1.39-2.352-2.727-4.727-4.027-7.119
		c17.843,16.664,38.593,28.898,60.456,39.494c22.678,10.989,46.197,20.623,70.542,27.247c24.073,6.55,51.712,11.573,75.87,2.773
		c2.606-0.949,4.856-4.25,3.363-6.907c-13.158-23.417-34.333-40.842-48.889-63.279c-6.272-9.666-10.408-20.225-14.099-30.975
		c5.888,8.359,12.347,16.328,19.509,23.797c17.482,18.227,37.801,33.457,59.829,45.763c45.041,25.161,96.099,38.177,146.566,47.075
		c29.657,5.228,59.568,9.526,89.651,11.222c35.714,2.012,71.533,0.75,107.1-2.918c35.491-3.66,70.708-9.824,105.453-17.904
		c33.889-7.882,67.953-15.808,101.243-25.967c14.431-4.404,28.849-9.286,42.905-15.004c-9.848,8.743-20.162,17.013-31.064,24.655
		c-14.345,10.056-29.42,18.854-45.081,26.688c-2.944,1.472-5.634,5.868-1.569,7.693c22.34,10.03,48.937,6.528,71.878,0.557
		c23.045-5.996,45.175-15.299,66.474-25.854c2.102-1.042,4.201-2.11,6.299-3.179c-1.325,1.675-2.607,3.393-3.785,5.217
		c-0.854,1.321-1.249,3.965,0.498,4.875c27.746,14.463,61.87,6.879,90.149-2.015c29.862-9.392,59.552-21.443,87.835-34.84
		c30.601-14.493,60.16-32.299,84.39-56.189c26.542-26.17,42.765-60.426,58.612-93.679c17.525-36.774,32.391-75.099,40.342-115.16
		C1627.108,951.789,1626.033,910.533,1618.787,870.261z"/>
	<g>
		<g>
			<path style="fill:#EB936D;" d="M1147.037,1588.167c-52.016-52.017-52.016-364.115-52.016-364.115H963.167H927.88H796.026
				c0,0,0,312.098-52.016,364.115c-52.016,52.016-223.837,79.583-223.837,79.583s30.682,388.643,198.157,439.781
				c66.104,20.185,149.929,24.429,227.194,22.179c77.264,2.25,161.089-1.994,227.193-22.179
				c167.475-51.137,198.157-439.781,198.157-439.781S1199.054,1640.183,1147.037,1588.167z"/>
			<path style="opacity:0.64;fill:#EB936D;" d="M841.249,1348.046c31.059,17.195,64.281,30.3,98.364,40.127
				c35.236,10.16,71.46,16.859,107.946,20.443c18.633,1.83,37.352,2.839,56.08,3.046c-8.615-93.484-8.617-187.61-8.617-187.61
				H796.026c0,0-0.002,39.494-2.342,92.711C808.677,1328.417,824.633,1338.847,841.249,1348.046z"/>
			<path style="opacity:0.64;fill:#EB936D;" d="M1217.932,1773.32c-15.593,1.863-31.17,3.859-46.727,6.003
				c-11.35,1.564-22.712,3.018-33.961,5.222c-17.859,3.5-35.368,8.896-50.718,18.912c-15.35,10.016-27.73,23.816-38.592,38.48
				c1.945-0.78,3.88-1.586,5.835-2.344c32.763-12.714,66.642-22.379,100.981-29.783c33.681-7.262,67.787-12.374,101.983-16.487
				c32.465-3.905,65.028-6.901,97.577-10.007c1.526-7.967,2.927-15.696,4.208-23.124c-15.967,1.084-31.926,2.292-47.873,3.652
				C1279.69,1766.484,1248.779,1769.636,1217.932,1773.32z"/>
			<path style="opacity:0.64;fill:#EB936D;" d="M731.37,1784.001c13.228,2.72,25.836,7.745,37.856,13.824
				c21.531,10.891,41.426,25.344,64.234,33.503c-5.267-8.842-10.52-17.704-16.223-26.271c-5.376-8.076-11.24-15.918-18.426-22.487
				c-13.282-12.141-30.391-17.375-47.994-19.268c-30.852-3.317-61.768-6.469-92.72-8.71c-7.996-0.579-16.07-0.755-24.041-1.571
				c-7.784-0.797-15.56-1.578-23.363-2.18c-15.758-1.218-31.546-2.1-47.27-3.724c-7.829-0.809-15.642-1.798-23.409-3.08
				c-3.544-0.585-7.041-1.366-10.516-2.244c0.698,4.436,1.447,9.02,2.24,13.729c50.651,5.936,101.421,10.95,151.74,19.359
				C699.514,1777.563,715.448,1780.727,731.37,1784.001z"/>
		</g>
		<path style="fill:#EB936D;" d="M322.567,1728.243c0,0-109.306,11.506-138.071,163.959
			c-28.764,152.453-69.035,860.065-69.035,860.065h256.006l60.406-716.242L322.567,1728.243z"/>
		<path style="opacity:0.64;fill:#EB936D;" d="M203.968,2286.176c22.925,16.966,46.203,33.498,70.391,48.63
			c3.084,1.929,6.182,3.835,9.296,5.717c2.542,1.534,5.523,2.584,6.842,5.317c3.201,6.629,5.896,13.562,8.795,20.327
			c5.802,13.539,11.514,27.116,17.157,40.719c22.669,54.646,44.21,109.749,66.044,164.73c1.156,2.908,2.316,5.814,3.472,8.723
			l45.906-544.314l-109.306-307.782c0,0-109.306,11.506-138.071,163.959c-11.117,58.919-23.952,200.761-35.516,352.626
			C167.316,2258.607,185.542,2272.54,203.968,2286.176z"/>
		<path style="fill:#EB936D;" d="M1582.461,1728.243c0,0,109.306,11.506,138.07,163.959
			c28.765,152.453,69.036,860.065,69.036,860.065h-256.006l-60.406-716.242L1582.461,1728.243z"/>
		<path style="opacity:0.64;fill:#EB936D;" d="M1524.478,2582.052c4.202-28.208,7.797-56.508,12.627-84.621
			c8.696-50.612,20.537-104.184,55.053-144.035c33.365-38.523,81.633-61.708,126.587-83.713
			c12.596-6.166,25.235-12.261,37.784-18.534c-11.689-154.239-24.726-299.212-35.998-358.948
			c-28.764-152.453-138.07-163.959-138.07-163.959l-109.306,307.782l47.85,567.361
			C1522.245,2596.292,1523.416,2589.184,1524.478,2582.052z"/>
		<g>
			<path style="fill:#373233;" d="M1627.846,1745.599c-117.616-61.365-255.512-81.82-255.512-81.82s-33.987,258.243-101.17,351.568
				c-56.988,79.163-181.022,96.687-291.482,97.845v-0.684c-9.37,0.296-18.993,0.511-28.765,0.636
				c-9.772-0.125-19.395-0.34-28.765-0.636v0.684c-110.461-1.158-234.495-18.683-291.483-97.845
				c-67.183-93.326-101.17-351.568-101.17-351.568s-137.896,20.455-255.512,81.82c-117.616,61.365-245.459,388.643-245.459,388.643
				c51.137,33.239,334.949,140.627,334.949,140.627c7.671,109.945,84.377,477.397,84.377,477.397h474.298h57.53h474.298
				c0,0,76.706-367.452,84.376-477.397c0,0,283.812-107.388,334.949-140.627C1873.305,2134.242,1745.461,1806.964,1627.846,1745.599
				z"/>
			<path style="fill:#201B1C;" d="M364.539,2278.493c-2.822-44.274-4.96-88.591-6.537-132.927
				c-1.388-39.036-2.317-78.086-2.912-117.141c-5.452,18.954-9.387,38.324-12.182,57.85c-6.476,45.246-7.177,91.163-6.546,136.791
				c0.193,13.937,0.542,27.871,0.925,41.804c16.341,6.272,26.189,9.999,26.189,9.999c0.551,7.902,1.47,17.172,2.68,27.502
				C365.604,2294.413,365.047,2286.454,364.539,2278.493z"/>
			<path style="fill:#201B1C;" d="M1552.513,2229.321c-5.547-50.575-10.449-101.276-19.076-151.447
				c-7.391-42.982-17.601-85.68-33.219-126.44c4.808,26.886,9.212,53.845,13.168,80.87c8.901,60.816,15.671,121.946,20.232,183.242
				c1.666,22.389,3.028,44.801,4.099,67.226c0.243-2.747,0.464-5.412,0.638-7.902c0,0,6.847-2.591,18.59-7.086
				C1555.383,2254.973,1553.92,2242.149,1552.513,2229.321z"/>
		</g>
	</g>
	<g>
		<g>
			<g>
				<g>
					<g>
						<g>
							<path style="fill:#EB936D;" d="M1461.383,846.418c-10.65-41.362-54.414-63.752-97.007-50.11
								c-24.363,7.803-42.81,29.235-53.61,50.636c-6.295,12.473-10.184,26.151-12.512,39.81
								c-9.794,24.243-15.06,51.077-14.506,76.84c0.393,18.245,1.432,51.674,20.648,62.373
								c18.736,10.431,49.692-4.073,66.301-12.832c21.087-11.121,38.763-27.243,53.336-45.372
								C1451.471,933.629,1472.64,890.144,1461.383,846.418z"/>
							<path style="opacity:0.64;fill:#EB936D;" d="M1324.505,1029.388c3.038-9.054,5.957-18.148,8.72-27.291
								c11.018-36.457,19.905-73.735,24.538-111.574c3.726-30.433,4.803-61.532,0.738-91.99
								c-21.456,9.134-37.824,28.769-47.736,48.411c-6.295,12.473-10.184,26.151-12.512,39.81
								c-9.794,24.243-15.06,51.077-14.506,76.84c0.393,18.246,1.432,51.674,20.648,62.372
								C1310.19,1029.192,1317.157,1030.024,1324.505,1029.388z"/>
							<path style="fill:#EB936D;" d="M1441.374,846.871c-4.283-7.927-12.5-12.837-21.196-14.329
								c-20.017-3.433-41.288,9.878-54.616,23.656c-29.668,30.669-36.857,76.562-40.174,117.321
								c-0.194,2.385,3.376,0.87,3.699-0.784c1.278-6.541,2.573-13.186,3.963-19.859c0.593,4.842,1.569,9.613,2.558,13.894
								c1.94,8.405,6.801,15.995,15.971,16.869c22.138,2.109,38.611-23.716,49.97-38.416c1.067-1.381-1.161-1.883-2.044-0.949
								c-10.488,11.094-21.476,25.757-36.616,30.645c-12.187,3.935-17.15-4.982-19.999-15.015c-2.348-8.27-6.214-17.897-4.03-26.492
								c0.303-1.192-0.139-1.834-0.85-2.082c5.078-19.737,11.874-39.03,22.751-55.93c9.446-14.677,23.391-27.834,40.65-32.499
								c11.754-3.178,24.321-0.709,31.027,10.231c6.262,10.216,3.657,23.239,4.795,34.671c0.135,1.359,2.353,0.15,2.443-0.792
								C1440.939,873.682,1448.382,859.838,1441.374,846.871z"/>
						</g>
						<g>
							<path style="fill:#EB936D;" d="M492.514,967.762c14.574,18.129,32.25,34.251,53.336,45.372
								c16.609,8.76,47.565,23.264,66.301,12.832c19.215-10.699,20.254-44.128,20.647-62.373
								c0.554-25.763-4.712-52.597-14.506-76.84c-2.328-13.659-6.218-27.337-12.513-39.81c-10.8-21.401-29.247-42.833-53.61-50.636
								c-42.593-13.641-86.357,8.748-97.006,50.11C443.905,890.144,465.075,933.629,492.514,967.762z"/>
							<path style="opacity:0.64;fill:#EB936D;" d="M592.042,1029.388c-3.038-9.054-5.957-18.148-8.72-27.291
								c-11.018-36.457-19.906-73.735-24.539-111.574c-3.726-30.433-4.803-61.532-0.738-91.99
								c21.456,9.134,37.824,28.769,47.736,48.411c6.295,12.473,10.185,26.151,12.513,39.81c9.794,24.243,15.06,51.077,14.506,76.84
								c-0.393,18.246-1.432,51.674-20.647,62.372C606.356,1029.192,599.388,1030.024,592.042,1029.388z"/>
							<path style="fill:#EB936D;" d="M475.172,846.871c4.284-7.927,12.5-12.837,21.197-14.329
								c20.016-3.433,41.287,9.878,54.616,23.656c29.668,30.669,36.857,76.562,40.174,117.321c0.194,2.385-3.376,0.87-3.699-0.784
								c-1.278-6.541-2.573-13.186-3.963-19.859c-0.593,4.842-1.569,9.613-2.557,13.894c-1.94,8.405-6.801,15.995-15.972,16.869
								c-22.138,2.109-38.611-23.716-49.97-38.416c-1.067-1.381,1.161-1.883,2.044-0.949c10.489,11.094,21.477,25.757,36.616,30.645
								c12.187,3.935,17.15-4.982,19.999-15.015c2.348-8.27,6.214-17.897,4.03-26.492c-0.303-1.192,0.139-1.834,0.85-2.082
								c-5.078-19.737-11.875-39.03-22.752-55.93c-9.446-14.677-23.391-27.834-40.65-32.499
								c-11.754-3.178-24.321-0.709-31.027,10.231c-6.262,10.216-3.657,23.239-4.795,34.671c-0.135,1.359-2.353,0.15-2.443-0.792
								C475.607,873.682,468.164,859.838,475.172,846.871z"/>
						</g>
						<path style="fill:#EB936D;" d="M1344.567,470.108c-13.696-212.616-261.939-236.817-261.939-236.817
							c-36.254-8.405-84.855-2.153-125.302,6.516c-40.447-8.669-89.048-14.922-125.302-6.516c0,0-248.243,24.201-261.938,236.817
							c-13.696,212.616,18.832,541.047,44.512,620.563c24.714,76.525,136.652,225.073,297.642,248.465
							c16.937,4.561,32.719,5.547,45.087,5.202c12.368,0.345,28.151-0.641,45.087-5.202
							c160.989-23.392,272.926-171.94,297.641-248.465C1325.735,1011.156,1358.262,682.725,1344.567,470.108z"/>
						<path style="opacity:0.64;fill:#EB936D;" d="M686.844,698.198c72.938-13.695,143.248-39.425,212.271-66.153
							c29.008-11.233,57.642-24.084,83.922-40.843c24.981-15.93,48.571-35.984,62.491-62.606c0.822-1.572,2.936-1.29,3.822,0
							c21.273,30.969,44.663,60.468,69.934,88.271c47.036,51.752,100.753,98.318,161.276,133.659
							c19.336,11.29,39.465,21.363,60.198,29.883c7.024-105.48,9.713-218.647,3.809-310.3
							c-13.696-212.617-261.939-236.816-261.939-236.816c-36.253-8.406-84.855-2.154-125.302,6.516
							c-40.447-8.669-89.048-14.922-125.302-6.516c0,0-248.243,24.2-261.939,236.816c-4.575,71.016-3.988,154.95-0.226,238.217
							C609.084,709.006,648.258,705.442,686.844,698.198z"/>
						<path style="opacity:0.64;fill:#EB936D;" d="M943.096,1014.203c-11.485-1.912-23.023-6.355-31.219-14.688
							c-0.148,0.776-0.26,1.563-0.285,2.369c-0.133,4.28,1.6,8.285,4.165,11.642c5.224,6.836,13.292,11.484,21.108,14.748
							c8.016,3.348,16.461,5.359,25.173,5.173c18.643-0.398,38.225-9.438,44.271-27.705c-5.41,2.664-11.166,4.652-16.991,6.14
							C974.35,1015.706,958.364,1016.746,943.096,1014.203z"/>
						<path style="fill:#7F2910;" d="M1041.589,722.457c3.774-1.474,7.501-3.067,11.214-4.356
							c10.907-3.787,22.378-6.326,33.662-8.703c20.978-4.419,42.752-6.602,64.131-7.866c21.103-1.248,42.08-0.533,63.034,2.317
							c18.387,2.502,36.741,6.322,54.575,11.48c12.271,3.55,24.863,7.941,35.832,14.769c-3.485-11.459-7.326-22.529-12.782-32.401
							c-5.779-7.865-12.759-14.794-21.528-20.142c-18.719-11.417-40.936-16.253-62.533-18.327
							c-21.704-2.084-43.63-1.429-65.313,0.588c-23.623,2.198-49.473,1.859-69.913,15.747c-8.89,6.04-15.912,14.832-21.27,24.053
							c-1.718,2.957-3.288,6.051-4.679,9.23c0.007,0.286-0.01,0.569,0.004,0.856c-0.602,1.183-1.192,2.328-1.748,3.468
							C1043.162,716.206,1042.245,719.308,1041.589,722.457z"/>
						<g>
							<path style="fill:#FFFFFF;" d="M1103.403,953.045c17.463,1.112,35.07-0.229,52.317-3.046
								c18.343-2.995,36.507-7.642,53.862-14.323c18.129-6.979,35.716-16.559,50.147-29.692c0.553-0.503,1.103-1.019,1.654-1.533
								c1.35-1.709,2.659-3.451,3.882-5.261c0.517-3.753,0.893-7.528,1.078-11.315c0.776-15.898-1.016-31.874-4.709-47.336
								c-3.62-15.158-9.113-29.801-19.209-41.913c-2.845-3.414-5.974-6.406-9.301-9.091c-1.05-0.544-2.084-1.11-3.168-1.608
								c-38.512-17.667-86.963-8.392-121.128,14.88c-11.155,7.598-20.49,17.296-27.671,28.429
								c-9.674,17.021-15.268,36.021-17.411,55.542c-2.12,19.309-1.316,38.792,0.586,58.111
								C1076.708,949.834,1090.13,952.2,1103.403,953.045z"/>
							<g>
								<g>
									
										<ellipse transform="matrix(0.161 -0.9869 0.9869 0.161 120.9172 1868.6105)" style="fill:#92422B;" cx="1159.564" cy="863.182" rx="72.708" ry="72.709"/>
									
										<ellipse transform="matrix(0.1612 -0.9869 0.9869 0.1612 120.7979 1868.4872)" style="fill:#1A1716;" cx="1159.564" cy="863.182" rx="54.14" ry="54.141"/>
									<path style="fill:#FFFFFF;" d="M1152.592,833.293c0,11.842-9.6,21.441-21.442,21.441c-11.841,0-21.441-9.599-21.441-21.441
										s9.6-21.442,21.441-21.442C1142.992,811.851,1152.592,821.451,1152.592,833.293z"/>
									<path style="fill:#FFFFFF;" d="M1114.22,865.021c0,3.497-2.834,6.331-6.331,6.331s-6.331-2.835-6.331-6.331
										c0-3.496,2.835-6.331,6.331-6.331S1114.22,861.525,1114.22,865.021z"/>
								</g>
							</g>
							<path d="M1092.443,836.753c6.319-8.496,13.393-16.406,21.499-23.193c16.466-13.786,36.014-20.863,57.135-23.816
								c11.738-1.641,23.891-1.879,35.581,0.266c5.148,0.945,10.216,2.293,15.24,3.812c14.55,3.077,29.174,6.756,44.104,6.902
								c7.053,0.069,14.502-0.657,20.849-3.973c3.944-2.061,6.994-5.029,9.235-8.599c-0.542-0.066-1.163,0.036-1.823,0.361
								c-24.281,11.975-49.9-1.283-73.186-9.239c-22.949-7.842-47.332-12.576-71.6-9.52c-23.348,2.94-46.081,13.499-61.842,31.201
								c-8.877,9.969-15.723,21.727-20.77,34.201c-2.585,11.286-4.103,22.857-5.078,34.269c-0.831,9.729-1.239,19.476-1.442,29.23
								c2.587-10.609,6.435-20.926,11.249-30.615C1077.129,856.904,1084.11,846.204,1092.443,836.753z"/>
							<path style="fill:#6F2F1A;" d="M1269.888,893.317c-0.813-0.291-1.844-0.178-2.737,0.581
								c-5.616,4.775-10.212,10.682-15.732,15.613c-5.306,4.74-11.114,8.859-17.131,12.642
								c-11.999,7.543-24.779,13.805-38.301,18.116c-14.054,4.48-28.482,6.539-43.107,8.051c-16.656,1.723-33.494,2.946-50.24,1.993
								c-7.67-0.436-15.414-1.323-22.801-3.514c-7.544-2.237-14.642-5.977-21.309-10.108c-0.964-0.597-2.811,0.708-2.103,1.805
								c7.742,12.007,22.215,16.476,35.732,18.178c5.356,1.206,10.78,2.116,16.231,2.744c16.061,1.853,32.191,1.471,48.239-0.292
								c28.915-3.177,58.023-10.789,81.906-28.045c12.636-9.129,25.42-20.714,32.914-34.566
								C1272.651,894.294,1271.478,893.307,1269.888,893.317z"/>
						</g>
						<path style="fill:#7F2910;" d="M892.634,722.457c-3.773-1.474-7.5-3.067-11.214-4.356
							c-10.908-3.787-22.379-6.326-33.663-8.703c-20.977-4.419-42.751-6.602-64.131-7.866c-21.104-1.248-42.08-0.533-63.034,2.317
							c-18.388,2.502-36.742,6.322-54.575,11.48c-12.271,3.55-24.864,7.941-35.833,14.769c3.486-11.459,7.326-22.529,12.782-32.401
							c5.778-7.865,12.759-14.794,21.527-20.142c18.72-11.417,40.936-16.253,62.533-18.327c21.705-2.084,43.63-1.429,65.313,0.588
							c23.623,2.198,49.473,1.859,69.913,15.747c8.89,6.04,15.912,14.832,21.27,24.053c1.719,2.957,3.288,6.051,4.679,9.23
							c-0.007,0.286,0.009,0.569-0.004,0.856c0.602,1.183,1.192,2.328,1.748,3.468C891.062,716.206,891.979,719.308,892.634,722.457
							z"/>
						<g>
							<path style="fill:#FFFFFF;" d="M830.821,953.045c-17.463,1.112-35.07-0.229-52.317-3.046
								c-18.342-2.995-36.507-7.642-53.861-14.323c-18.129-6.979-35.717-16.559-50.148-29.692c-0.553-0.503-1.103-1.019-1.653-1.533
								c-1.351-1.709-2.66-3.451-3.882-5.261c-0.517-3.753-0.893-7.528-1.078-11.315c-0.776-15.898,1.016-31.874,4.709-47.336
								c3.621-15.158,9.114-29.801,19.209-41.913c2.846-3.414,5.974-6.406,9.302-9.091c1.05-0.544,2.083-1.11,3.168-1.608
								c38.512-17.667,86.963-8.392,121.127,14.88c11.155,7.598,20.49,17.296,27.671,28.429
								c9.674,17.021,15.268,36.021,17.412,55.542c2.12,19.309,1.315,38.792-0.586,58.111
								C857.516,949.834,844.094,952.2,830.821,953.045z"/>
							<g>
								<g>
									
										<ellipse transform="matrix(0.2286 -0.9735 0.9735 0.2286 -242.7343 1420.0404)" style="fill:#92422B;" cx="774.66" cy="863.182" rx="72.708" ry="72.708"/>
									
										<ellipse transform="matrix(0.2289 -0.9735 0.9735 0.2289 -242.9071 1419.7247)" style="fill:#1A1716;" cx="774.66" cy="863.182" rx="54.14" ry="54.14"/>
									<path style="fill:#FFFFFF;" d="M767.689,833.293c0,11.842-9.6,21.441-21.442,21.441c-11.842,0-21.442-9.599-21.442-21.441
										s9.6-21.442,21.442-21.442C758.089,811.851,767.689,821.451,767.689,833.293z"/>
									<path style="fill:#FFFFFF;" d="M729.317,865.021c0,3.497-2.835,6.331-6.331,6.331c-3.496,0-6.331-2.835-6.331-6.331
										c0-3.496,2.834-6.331,6.331-6.331C726.482,858.691,729.317,861.525,729.317,865.021z"/>
								</g>
							</g>
							<path d="M841.781,836.753c-6.32-8.496-13.393-16.406-21.499-23.193c-16.466-13.786-36.014-20.863-57.135-23.816
								c-11.737-1.641-23.891-1.879-35.581,0.266c-5.148,0.945-10.216,2.293-15.24,3.812c-14.549,3.077-29.173,6.756-44.104,6.902
								c-7.053,0.069-14.502-0.657-20.849-3.973c-3.945-2.061-6.994-5.029-9.236-8.599c0.541-0.066,1.163,0.036,1.823,0.361
								c24.282,11.975,49.9-1.283,73.186-9.239c22.949-7.842,47.332-12.576,71.601-9.52c23.348,2.94,46.08,13.499,61.841,31.201
								c8.877,9.969,15.723,21.727,20.77,34.201c2.585,11.286,4.102,22.857,5.077,34.269c0.831,9.729,1.24,19.476,1.442,29.23
								c-2.587-10.609-6.435-20.926-11.249-30.615C857.095,856.904,850.114,846.204,841.781,836.753z"/>
							<path style="fill:#6F2F1A;" d="M664.336,893.317c0.812-0.291,1.843-0.178,2.737,0.581
								c5.617,4.775,10.212,10.682,15.732,15.613c5.306,4.74,11.114,8.859,17.132,12.642c11.998,7.543,24.778,13.805,38.301,18.116
								c14.053,4.48,28.481,6.539,43.107,8.051c16.657,1.723,33.494,2.946,50.24,1.993c7.67-0.436,15.413-1.323,22.801-3.514
								c7.544-2.237,14.642-5.977,21.309-10.108c0.964-0.597,2.811,0.708,2.103,1.805c-7.742,12.007-22.214,16.476-35.731,18.178
								c-5.356,1.206-10.78,2.116-16.232,2.744c-16.06,1.853-32.19,1.471-48.239-0.292c-28.915-3.177-58.023-10.789-81.906-28.045
								c-12.636-9.129-25.421-20.714-32.914-34.566C661.573,894.294,662.746,893.307,664.336,893.317z"/>
						</g>
						<path style="opacity:0.65;fill:#92422B;" d="M913.69,1016.844c3.855,3.791,8.263,6.942,13.019,9.504
							c5.996,3.231,12.396,5.584,18.983,7.22c1.504,0.173,3.014,0.313,4.536,0.367c6.162,0.214,12.469-0.282,18.598-0.916
							c6.604-0.684,13.83-1.788,20.33-4.298c-18.387,4.046-38.666,2.166-55.594-5.982c-4.548-2.189-8.876-4.904-12.723-8.178
							c-3.258-2.773-6.913-6.269-8.362-10.408c-2.464-7.043,4.137-12.623,8.736-16.907c5.864-5.463,13.428-11.873,13.862-20.483
							c0.069-1.366-1.835-0.553-2.134,0.213c-3.207,8.199-11.031,13.493-17.252,19.262c-5.268,4.885-11.142,11.307-9.51,19.106
							C907.138,1009.919,910.458,1013.665,913.69,1016.844z"/>
					</g>
				</g>
			</g>
		</g>
		<g>
			<path style="fill:#CE5134;" d="M1057.5,1174.42c-4.526-5.673-10.617-10.902-16.007-16.153
				c-11.564-11.267-25.265-23.551-44.296-28.102c-8.43-2.016-17.424-1.882-25.982-0.345c-4.195,0.753-8.279,1.87-12.096,3.348
				c-0.66,0.256-1.217,0.536-1.793,0.812c-0.576-0.276-1.134-0.557-1.793-0.812c-3.817-1.478-7.901-2.595-12.096-3.348
				c-8.558-1.536-17.552-1.67-25.982,0.345c-19.031,4.55-32.731,16.835-44.296,28.102c-5.39,5.251-11.482,10.48-16.007,16.153
				c-1.736,2.176-3.996,5.091-3.06,7.706c0.944,2.636,5.09,3.887,7.8,5.418c9.347,5.283,17.538,11.562,26.963,16.781
				c8.274,4.582,17.249,8.09,27.284,10.14c13.923,2.845,28.491,2.992,42.845,2.832c13.423-0.149,26.492-0.167,39.531-2.832
				c10.036-2.051,19.01-5.558,27.285-10.14c9.425-5.219,17.615-11.498,26.962-16.781c2.71-1.532,6.856-2.782,7.8-5.418
				C1061.496,1179.51,1059.236,1176.595,1057.5,1174.42z"/>
			<path style="fill:#EB936D;" d="M1054.098,1177.45c-0.21-2.701-5.694-1.184-5.872,0.906c-0.014,0.17-0.033,0.339-0.047,0.508
				c-0.553,0.014-1.148,0.071-1.669,0.057c-2.027-0.056-3.932-0.407-5.855-0.854c-2.618-0.609-5.149-1.404-7.768-2.003
				c-13.27-3.037-27.51-4.764-41.319-5.816c-27.926-2.128-56.025-0.594-83.923,1.039c-7.675,0.45-15.03,1.028-22.418,2.727
				c-3.703,0.851-7.414,1.778-10.998,2.868c-1.505,0.458-2.957,0.994-4.418,1.522c-0.406,0.146-0.801,0.311-1.21,0.451
				c-0.303,0.115-0.618,0.212-0.935,0.305c-1.676-2.404-7.254-0.007-6.685,2.389c1.063,4.479,7.952,2.201,11.529,0.993
				c7.615-2.571,14.821-5.688,22.903-7.479c8.287-1.837,16.659-2.286,25.256-2.679c8.104-0.37,16.184-0.909,24.302-1.113
				c16.14-0.406,32.319,0.077,48.333,1.623c13.726,1.325,28.066,2.771,41.165,6.156c2.537,0.656,9.071,2.537,13.914,2.476
				c1.32,1.324,6.094,0.061,5.919-1.935C1054.243,1178.876,1054.176,1178.163,1054.098,1177.45z"/>
		</g>
	</g>
	<path style="fill:#B84026;" d="M1808.302,1232.898c-35.509-2.359-69.321-19.205-91.411-47.312
		c-28.689-36.505-33.571-88.222-23.42-132.342c4.93-21.426,12.649-42.112,19.78-62.897c4.184-30.584,8.865-61.047,6.076-92.106
		c-5.046-56.172-30.375-106.636-62.884-151.844c-30.149-41.926-65.544-80.14-91.685-124.884
		c-29.256-50.078-40.294-106.714-50.374-163.148c-10.2-57.102-19.748-115.58-46.226-167.854
		c-24.273-47.922-61.359-88.423-102.99-121.903c-43.02-34.597-91.529-64.678-144.845-80.138
		c-26.683-7.738-54.959-12.917-82.793-13.484c-21.698-0.443-44.602,1.928-64.812,10.217c-4.298,1.762-8.495,3.855-12.402,6.371
		c-18.795-12.583-39.288-23.591-60.233-31.722c-24.537-9.526-50.535-14.848-76.74-16.918
		c-53.235-4.206-107.139,4.946-157.896,20.716c-48.198,14.974-94.433,35.454-134.561,66.461
		c-11.186,8.643-21.893,18.012-32.01,28.002c-46.826,36.86-87.411,82.495-116.341,134.597
		c-33.389,60.132-51.093,127.44-74.2,191.807c-9.816,27.341-20.835,54.334-34.137,79.97c-1.107,2.486-2.235,4.957-3.402,7.402
		c-24.507,51.36-61.283,96.148-98.173,139.025c-19.473,22.633-41.282,44.077-65.006,62.23
		c-22.379,17.123-47.54,31.165-75.158,37.313c30.124,11.203,65.224,0.998,91.189-16.102c2.198-1.447,4.293,1.698,2.682,3.475
		c-4.296,4.742-8.503,9.561-12.59,14.483c-32.661,39.32-59.192,85.53-69.707,135.951c-10.667,51.152-1.778,103.57,26.329,147.766
		c28.007,44.039,65.643,82.489,85.754,131.266c13.129,31.844,14.479,68.114,8.788,101.848c-1.151,6.822-2.807,13.984-5.103,20.971
		c3.347-6.161,6.553-12.394,9.467-18.743c13.403-29.19,20.107-61.003,21.088-93.045c0.908-29.606-2.757-59.107-8.046-88.192
		c3.737,4.693,7.594,9.269,11.558,13.714c16.943,18.995,36.294,36.368,58.013,49.742c3.398,2.091,8.747-2.234,6.897-5.923
		c-13.17-26.252-28.223-51.541-41.406-77.773c11.281,20.235,25.889,38.488,44.064,53.771c8.01,6.734,16.569,12.811,25.527,18.219
		c8.649,5.222,17.759,9.399,26.725,14.012c17.503,9.005,34.961,20.408,54.416,24.686c4.101,0.902,8.326,1.461,12.528,1.205
		c3.239-0.199,9.032-4.166,6.279-7.983c-10.392-14.409-25.579-24.046-38.09-36.382c-12.808-12.629-22.754-28.122-30.986-44.024
		c-14.535-28.082-24.471-58.946-31.339-89.752c-12.949-58.079-13.441-119.658,3.122-177.078
		c16.69-57.859,50.784-109.171,98.55-146.001c61.507-47.423,129.044-86.698,198.375-121.461c1.971-0.988,3.964-1.955,5.947-2.933
		c3.381-1.542,6.763-3.085,10.144-4.627c31.252-14.265,62.88-28.688,92.998-45.517c11.733-6.286,23.239-12.925,34.411-20.061
		c-6.282,6.919-12.671,13.736-19.297,20.318c-20.432,20.3-43.156,37.562-68,52.121c-11.64,6.82-24.899,13.773-38.681,13.839
		c-1.152-0.038-2.302-0.034-3.455-0.115c-5.648-0.461-10.826,9.417-3.406,9.939c34.359,2.418,67.607-12.112,99.004-24.086
		c33.754-12.874,66.22-28.111,97.516-46.188c30.308-17.506,60.266-36.756,86.913-59.531c25.8-22.051,48.534-47.273,68.253-74.88
		c7.209-10.093,14.111-20.324,19.875-31.184c6.977,19.079,15.735,37.542,25.774,55.138
		c34.447,60.378,83.838,109.934,133.862,157.426c48.156,45.719,92.626,95.721,129.957,150.72
		c37.47,55.205,67.717,115.351,85.022,179.973c14.786,55.215,17.468,121.188-13.172,171.772
		c-3.808,6.287-8.121,12.218-12.939,17.769c-3.919,4.514,1.979,7.207,5.571,3.791c24.791-23.571,42.763-53.522,52.48-86.297
		c8.999-30.354,17.948-60.901,24.537-91.911c2.313,10.981,3.83,22.1,4.176,33.481c0.629,20.753-1.715,41.497-5.087,61.944
		c-3.877,23.519-9.131,46.803-12.961,70.293c0.245,3.72,0.538,7.436,0.921,11.14c3.667,35.488,13.536,72.421,34.957,101.511
		c9.956,13.519,22.797,24.958,38.078,32.088c0.238,0.112,0.486,0.192,0.724,0.302c-1.044-1.889-2.054-3.797-3.012-5.732
		c-3.923-7.92-6.249-16.401-8.405-24.941c-8.691-34.418-11.031-70.223-7.566-105.512c7.889,26.891,23.385,50.984,44.169,70.573
		c12.983,12.238,27.796,23.163,43.982,30.782c13.431,6.321,27.645,10.821,42.135,13.987c31.705,6.929,65.492,8.376,97.314,1.35
		c18.025-3.981,36.177-11.238,50.754-22.732C1816.128,1233.209,1812.213,1233.157,1808.302,1232.898z"/>
	<g>
		<path style="fill:#7F2910;" d="M1077.608,287.105c-9.362-12.112-22.045-20.918-37.379-23.267
			c-14.825-2.271-30.017,0.951-43.858,6.259c-30.981,11.88-55.834,34.277-78.034,58.246
			c-55.875,60.332-111.401,121.569-180.793,166.795c-71.646,46.693-152.121,77.084-226.567,118.704
			c-56.277,31.463-110.728,69.237-153.889,117.568c-41.721,46.718-72.232,105.692-66.655,169.883
			c0.706,8.127,1.969,16.183,3.7,24.154c0.388,1.786,3.496,0.208,3.173-1.391c-6.348-31.37-4.467-63.565,5.51-93.979
			c9.732-29.669,26.268-56.77,46.023-80.806c40.078-48.763,92.291-86.837,146.592-118.319
			c70.542-40.899,146.972-70.479,217.384-111.64c35.385-20.685,68.408-44.667,99.09-71.84c29.701-26.305,57.11-55.036,84.045-84.126
			c23.379-25.25,45.306-52.764,74.141-72.088c23.997-16.083,55.993-29.552,84.377-16.664c7.659,3.478,14.465,8.474,20.329,14.482
			C1075.928,290.233,1078.655,288.461,1077.608,287.105z"/>
		<path style="fill:#7F2910;" d="M317.3,1139.759c-6.158-8.926-12.608-17.649-18.07-27.038c-5.312-9.132-9.796-18.725-13.32-28.686
			c-6.85-19.371-10.212-39.836-10.125-60.372c0.051-11.957,0.893-24.008,3.215-35.745c0.118-0.599-0.942-0.343-1.053,0.104
			c-5.206,21.034-7.89,41.973-5.668,63.63c2.177,21.221,8.687,41.643,18.641,60.488c0.625,1.181,1.267,2.357,1.915,3.529
			c-16.924-15.524-31.843-33.123-43.076-53.219c-11.392-20.38-18.764-42.884-22.553-65.888c-3.808-23.121-3.957-46.891-0.669-70.084
			c3.416-24.098,11.704-46.364,24.805-66.86c6.794-10.628,14.366-20.755,21.735-30.987c7.865-10.921,14.988-22.293,21.564-34.038
			c0.701-1.252-1.098-1.398-1.678-0.488c-13.108,20.534-29.891,38.441-43.888,58.352c-14.284,20.319-24.47,42.321-29.144,66.802
			c-9.012,47.2-3.473,97.526,18.067,140.689c12.001,24.048,29.263,45.83,52.048,60.412c1.535,0.982,3.899-0.496,4.249-2.117
			c5.13,8.937,11.04,17.484,18.197,24.885C314.418,1145.119,318.977,1142.189,317.3,1139.759z"/>
		<path style="fill:#7F2910;" d="M1414.965,695.668c-32.296-35.057-61.242-72.727-82.705-115.45
			c-22.122-44.035-36.017-91.889-43.669-140.483c-8.608-54.667-10.853-110.686-27.25-163.873
			c-12.304-39.912-33.646-80.239-72.545-99.596c-17.653-8.785-37.138-13.292-56.744-9.677
			c-17.742,3.272-35.908,12.412-44.976,28.658c-2.152,3.857-3.695,7.971-4.664,12.275c-0.459,2.04,2.464,1.543,2.922,0.053
			c5.552-18.077,21.947-29.555,39.739-33.88c19.174-4.66,38.394-1.319,56.012,7.188c38.034,18.366,59.394,57.165,71.618,95.922
			c16.229,51.456,18.934,105.811,27.96,158.71c8.066,47.272,22.02,93.695,42.619,137.056
			c19.521,41.088,45.733,80.149,77.343,112.948c3.953,4.101,7.974,8.136,12.041,12.123
			C1413.567,698.524,1415.876,696.656,1414.965,695.668z"/>
		<path style="fill:#7F2910;" d="M1548.436,920.892c-8.633-21.842-21.019-42.351-33.994-61.861
			c-12.833-19.296-27.147-37.579-42.263-55.133c-30.814-35.785-65.305-67.952-99.064-100.883
			c-33.916-33.086-67.336-67.721-91.826-108.572c-23.858-39.797-40.549-84.232-52.244-129.028c-1.449-5.55-2.818-11.12-4.126-16.706
			c-0.28-1.194-2.328-0.132-2.115,0.927c9.047,45.107,22.191,89.504,43.019,130.656c21.431,42.344,51.644,78.734,84.837,112.355
			c33.206,33.635,68.262,65.379,100.013,100.444c31.026,34.264,59.348,71.415,81.158,112.276
			c11.324,21.215,19.029,44.062,23.635,67.642c4.526,23.171,5.749,46.621,6.275,70.17c0.134,6.004,0.179,12.008,0.175,18.014
			c-0.001,1.721,2.653,0.757,2.735-0.58C1567.545,1013.649,1565.936,965.169,1548.436,920.892z"/>
		<path style="fill:#7F2910;" d="M1554.497,1055.332c-1.217-13.607-4.245-26.936-7.872-40.083
			c-4.147-15.029-9.246-29.781-13.046-44.904c-0.28-1.114-2.121-0.11-1.952,0.856c4.573,26.213,13.549,51.589,16.507,78.08
			c2.893,25.908-0.697,52.795-7.902,77.738c-3.953,13.688-9.67,26.684-17.152,38.815c-1.463,2.371,1.952,3.275,3.338,1.55
			c16.219-20.171,23.355-46.37,26.683-71.626C1554.868,1082.351,1555.703,1068.821,1554.497,1055.332z"/>
		<path style="fill:#7F2910;" d="M1589.292,724.774c-18.884-26.354-39.217-51.696-57.341-78.585
			c-18.224-27.04-34.402-55.425-48.75-84.7c-29.229-59.638-49.884-122.599-69.984-185.746
			c-10.253-32.211-20.792-64.359-33.73-95.611c-10.93-26.401-22.926-53.531-40.179-76.493
			c-14.96-19.911-33.002-38.173-53.601-52.254c-18.511-12.654-41.087-23.005-64.042-19.957c-5.281,0.7-10.399,2.18-15.289,4.279
			c-1.256,0.539-1.037,2.374,0.452,1.774c22.547-9.076,46.686-1.053,66.327,11.209c21.188,13.229,39.29,31.465,54.442,51.2
			c16.574,21.586,28.693,46.12,39.394,71.042c13.157,30.642,23.744,62.322,33.873,94.07c9.992,31.317,19.485,62.796,30.367,93.822
			c10.637,30.327,22.63,60.189,36.192,89.328c13.622,29.268,28.95,57.752,46.265,85.007c17.243,27.139,36.937,52.506,56.284,78.149
			c37.087,49.155,72.164,100.33,91.95,159.178c2.496,7.422,4.925,14.864,7.082,22.392c0.538,1.88,3.701,0.195,3.335-1.462
			C1658.722,829.83,1625.626,775.481,1589.292,724.774z"/>
		<path style="fill:#7F2910;" d="M1049.024,176.171c-4.533-17.27-20.067-26.429-36.291-30.978
			c-18.256-5.118-37.663-5.724-56.483-4.557c-49.347,3.062-96.742,20.855-138.549,46.744
			c-22.911,14.187-44.231,30.892-63.909,49.284c-20.642,19.292-39.12,40.718-57.252,62.343
			c-18.486,22.048-36.672,44.353-56.212,65.488c-18.443,19.948-38.423,37.787-59.848,54.452
			c-19.42,15.104-39.151,30.005-60.861,41.71c-21.13,11.391-44.923,20.917-69.344,19.935c-5.686-0.229-11.247-1.167-16.774-2.49
			c-1.781-0.426-4.408,2.526-2.081,3.342c10.738,3.762,21.256,8.218,32.33,10.962c9.674,2.398,19.594,3.946,29.568,4.186
			c22.105,0.533,43.751-5.554,63.739-14.633c2.934-1.334,2.44-5.705-1.071-4.206c-19.822,8.463-40.435,14.864-62.203,14.335
			c-14.238-0.345-28.897-3.187-42.82-7.568c15.869,0.409,32.028-3.705,46.579-9.315c23.146-8.924,44.57-22.302,64.835-36.461
			c20.139-14.069,39.866-29.08,57.955-45.718c20.907-19.231,39.693-40.533,57.968-62.238c18.517-21.994,36.618-44.359,56.113-65.507
			c18.276-19.824,38.141-38.134,59.782-54.24c42.25-31.443,91.533-54.853,144.05-61.99c17.304-2.351,35.049-2.88,52.437-1.17
			c17.141,1.686,36.568,6.138,48.662,19.378c2.766,3.028,4.96,6.509,6.51,10.304C1046.552,179.277,1049.44,177.755,1049.024,176.171
			z"/>
	</g>
</g>
</svg>
